<mxfile host="app.diagrams.net" modified="2024-05-30T11:28:16.981Z" agent="Mozilla/5.0 (Windows NT 10.0; Win64; x64) AppleWebKit/537.36 (KHTML, like Gecko) Chrome/124.0.0.0 Safari/537.36" etag="LP4Bo2mrblp_I2FV1KgQ" version="24.4.10" type="github">
  <diagram id="uh_liG2NyGJ5K_KAQINX" name="Page-1">
    <mxGraphModel dx="1290" dy="562" grid="1" gridSize="10" guides="1" tooltips="1" connect="1" arrows="1" fold="1" page="1" pageScale="1" pageWidth="850" pageHeight="1100" background="#FFFFFF" math="0" shadow="0">
      <root>
        <mxCell id="0" />
        <mxCell id="2" value="Layer 0" parent="0" />
        <mxCell id="3" value="&lt;div style=&#39;width: 114.333336px;height:auto;word-break: break-word;&#39;&gt;&lt;div align=&quot;center&quot;&gt;&lt;span style=&quot;font-size:12px;font-family:Arial; line-height: 0;&quot;&gt;&lt;span style=&quot; line-height: normal;&quot;&gt;Data Structure Component&lt;/span&gt;&lt;/span&gt;&lt;/div&gt;&lt;/div&gt;" style="shape=rect;shadow=0;strokeWidth=2;fillColor=#fff2cc;strokeColor=#000000;opacity=100.0;html=1;nl2Br=0;verticalAlign=middle;align=center;spacingLeft=1.3333334;spacingRight=0;whiteSpace=wrap;gliffyId=981;" parent="2" vertex="1">
          <mxGeometry x="1555" y="390" width="120" height="60" as="geometry" />
        </mxCell>
        <mxCell id="4" value="&lt;div style=&#39;width: 114.333336px;height:auto;word-break: break-word;&#39;&gt;&lt;div align=&quot;center&quot;&gt;&lt;span style=&quot;font-size:12px;font-family:Arial; line-height: 0;&quot;&gt;&lt;span style=&quot; line-height: normal;&quot;&gt;Identifier Component&lt;/span&gt;&lt;/span&gt;&lt;/div&gt;&lt;/div&gt;" style="shape=rect;shadow=0;strokeWidth=2;fillColor=#fff2cc;strokeColor=#000000;opacity=100.0;html=1;nl2Br=0;verticalAlign=middle;align=center;spacingLeft=1.3333334;spacingRight=0;whiteSpace=wrap;gliffyId=2788;" parent="2" vertex="1">
          <mxGeometry x="1405" y="550" width="120" height="60" as="geometry" />
        </mxCell>
        <mxCell id="5" value="&lt;div style=&#39;width: 114.333336px;height:auto;word-break: break-word;&#39;&gt;&lt;div align=&quot;center&quot;&gt;&lt;span style=&quot;font-size:12px;font-family:Arial; line-height: 0;&quot;&gt;&lt;span style=&quot; line-height: normal;&quot;&gt;Measure Component&lt;/span&gt;&lt;/span&gt;&lt;/div&gt;&lt;/div&gt;" style="shape=rect;shadow=0;strokeWidth=2;fillColor=#fff2cc;strokeColor=#000000;opacity=100.0;html=1;nl2Br=0;verticalAlign=middle;align=center;spacingLeft=1.3333334;spacingRight=0;whiteSpace=wrap;gliffyId=2790;" parent="2" vertex="1">
          <mxGeometry x="1555" y="550" width="120" height="60" as="geometry" />
        </mxCell>
        <mxCell id="6" value="&lt;div style=&#39;width: 114.333336px;height:auto;word-break: break-word;&#39;&gt;&lt;div align=&quot;center&quot;&gt;&lt;span style=&quot;font-size:12px;font-family:Arial; line-height: 0;&quot;&gt;&lt;span style=&quot; line-height: normal;&quot;&gt;Attribute Component&lt;/span&gt;&lt;/span&gt;&lt;/div&gt;&lt;/div&gt;" style="shape=rect;shadow=0;strokeWidth=2;fillColor=#fff2cc;strokeColor=#000000;opacity=100.0;html=1;nl2Br=0;verticalAlign=middle;align=center;spacingLeft=1.3333334;spacingRight=0;whiteSpace=wrap;gliffyId=2792;" parent="2" vertex="1">
          <mxGeometry x="1705" y="550" width="120" height="60" as="geometry" />
        </mxCell>
        <mxCell id="7" value="&lt;div style=&#39;width: 114.333336px;height:auto;word-break: break-word;&#39;&gt;&lt;div align=&quot;center&quot;&gt;&lt;span style=&quot;font-size:12px;font-family:Arial; line-height: 0;&quot;&gt;&lt;span style=&quot; line-height: normal;&quot;&gt;Data Structure&lt;/span&gt;&lt;/span&gt;&lt;/div&gt;&lt;/div&gt;" style="shape=rect;shadow=0;strokeWidth=2;fillColor=#fff2cc;strokeColor=#000000;opacity=100.0;html=1;nl2Br=0;verticalAlign=middle;align=center;spacingLeft=1.3333334;spacingRight=0;whiteSpace=wrap;gliffyId=2794;" parent="2" vertex="1">
          <mxGeometry x="1555" y="700" width="120" height="60" as="geometry" />
        </mxCell>
        <mxCell id="8" value="&lt;div style=&#39;width: 114.333336px;height:auto;word-break: break-word;&#39;&gt;&lt;div align=&quot;center&quot;&gt;&lt;span style=&quot;font-size:12px;font-family:Arial; line-height: 0;&quot;&gt;&lt;span style=&quot; line-height: normal;&quot;&gt;Dimensional Data Structure&lt;/span&gt;&lt;/span&gt;&lt;/div&gt;&lt;/div&gt;" style="shape=rect;shadow=0;strokeWidth=2;fillColor=#fff2cc;strokeColor=#000000;opacity=100.0;html=1;nl2Br=0;verticalAlign=middle;align=center;spacingLeft=1.3333334;spacingRight=0;whiteSpace=wrap;gliffyId=2823;" parent="2" vertex="1">
          <mxGeometry x="1730" y="660" width="120" height="60" as="geometry" />
        </mxCell>
        <mxCell id="9" value="&lt;div style=&#39;width: 114.333336px;height:auto;word-break: break-word;&#39;&gt;&lt;div align=&quot;center&quot;&gt;&lt;span style=&quot;font-size:12px;font-family:Arial; line-height: 0;&quot;&gt;&lt;span style=&quot; line-height: normal;&quot;&gt;Unit Data Structure&lt;/span&gt;&lt;/span&gt;&lt;/div&gt;&lt;/div&gt;" style="shape=rect;shadow=0;strokeWidth=2;fillColor=#fff2cc;strokeColor=#000000;opacity=100.0;html=1;nl2Br=0;verticalAlign=middle;align=center;spacingLeft=1.3333334;spacingRight=0;whiteSpace=wrap;gliffyId=2825;" parent="2" vertex="1">
          <mxGeometry x="1730" y="740" width="120" height="60" as="geometry" />
        </mxCell>
        <mxCell id="10" value="&lt;div style=&#39;width: 114.333336px;height:auto;word-break: break-word;&#39;&gt;&lt;div align=&quot;center&quot;&gt;&lt;span style=&quot;font-size:12px;font-family:Arial; line-height: 0;&quot;&gt;&lt;span style=&quot; line-height: normal;&quot;&gt;Data Resource&lt;/span&gt;&lt;/span&gt;&lt;/div&gt;&lt;/div&gt;" style="shape=rect;shadow=0;strokeWidth=2;fillColor=#fff2cc;strokeColor=#000000;opacity=100.0;html=1;nl2Br=0;verticalAlign=middle;align=center;spacingLeft=1.3333334;spacingRight=0;whiteSpace=wrap;gliffyId=2930;" parent="2" vertex="1">
          <mxGeometry x="1105" y="870" width="120" height="60" as="geometry" />
        </mxCell>
        <mxCell id="11" value="&lt;div style=&#39;width: 114.333336px;height:auto;word-break: break-word;&#39;&gt;&lt;div align=&quot;center&quot;&gt;&lt;span style=&quot;font-size:12px;font-family:Arial; line-height: 0;&quot;&gt;&lt;span style=&quot; line-height: normal;&quot;&gt;Referential Metadata Resource&lt;/span&gt;&lt;/span&gt;&lt;/div&gt;&lt;/div&gt;" style="shape=rect;shadow=0;strokeWidth=2;fillColor=#fff2cc;strokeColor=#000000;opacity=100.0;html=1;nl2Br=0;verticalAlign=middle;align=center;spacingLeft=1.3333334;spacingRight=0;whiteSpace=wrap;gliffyId=2932;" parent="2" vertex="1">
          <mxGeometry x="935" y="870" width="120" height="60" as="geometry" />
        </mxCell>
        <mxCell id="12" value="&lt;div style=&#39;width: 114.333336px;height:auto;word-break: break-word;&#39;&gt;&lt;div align=&quot;center&quot;&gt;&lt;span style=&quot;font-size:12px;font-family:Arial; line-height: 0;&quot;&gt;&lt;span style=&quot; line-height: normal;&quot;&gt;Information Resource&lt;/span&gt;&lt;/span&gt;&lt;/div&gt;&lt;/div&gt;" style="shape=rect;shadow=0;strokeWidth=2;fillColor=#fff2cc;strokeColor=#000000;opacity=100.0;html=1;nl2Br=0;verticalAlign=middle;align=center;spacingLeft=1.3333334;spacingRight=0;whiteSpace=wrap;gliffyId=2934;" parent="2" vertex="1">
          <mxGeometry x="1025" y="700" width="120" height="60" as="geometry" />
        </mxCell>
        <mxCell id="13" value="&lt;div style=&#39;width: 114.333336px;height:auto;word-break: break-word;&#39;&gt;&lt;div align=&quot;center&quot;&gt;&lt;span style=&quot;font-size:12px;font-family:Arial; line-height: 0;&quot;&gt;&lt;span style=&quot; line-height: normal;&quot;&gt;Information Set&lt;/span&gt;&lt;/span&gt;&lt;/div&gt;&lt;/div&gt;" style="shape=rect;shadow=0;strokeWidth=2;fillColor=#fff2cc;strokeColor=#000000;opacity=100.0;html=1;nl2Br=0;verticalAlign=middle;align=center;spacingLeft=1.3333334;spacingRight=0;whiteSpace=wrap;gliffyId=2936;" parent="2" vertex="1">
          <mxGeometry x="1025" y="550" width="120" height="60" as="geometry" />
        </mxCell>
        <mxCell id="14" value="&lt;div style=&#39;width: 114.333336px;height:auto;word-break: break-word;&#39;&gt;&lt;div align=&quot;center&quot;&gt;&lt;span style=&quot;font-size:12px;font-family:Arial; line-height: 0;&quot;&gt;&lt;span style=&quot; line-height: normal;&quot;&gt;Information Structure&lt;/span&gt;&lt;/span&gt;&lt;/div&gt;&lt;/div&gt;" style="shape=rect;shadow=0;strokeWidth=2;fillColor=#fff2cc;strokeColor=#000000;opacity=100.0;html=1;nl2Br=0;verticalAlign=middle;align=center;spacingLeft=1.3333334;spacingRight=0;whiteSpace=wrap;gliffyId=3004;" parent="2" vertex="1">
          <mxGeometry x="1025" y="310" width="120" height="60" as="geometry" />
        </mxCell>
        <mxCell id="15" value="&lt;div style=&#39;width: 114.333336px;height:auto;word-break: break-word;&#39;&gt;&lt;div align=&quot;center&quot;&gt;&lt;span style=&quot;font-size:12px;font-family:Arial; line-height: 0;&quot;&gt;&lt;span style=&quot; line-height: normal;&quot;&gt;Exchange Instrument&lt;/span&gt;&lt;/span&gt;&lt;/div&gt;&lt;/div&gt;" style="shape=rect;shadow=0;strokeWidth=2;fillColor=#f4cccc;strokeColor=#000000;opacity=100.0;html=1;nl2Br=0;verticalAlign=middle;align=center;spacingLeft=1.3333334;spacingRight=0;whiteSpace=wrap;gliffyId=2968;" parent="2" vertex="1">
          <mxGeometry x="905" y="390" width="120" height="60" as="geometry" />
        </mxCell>
        <mxCell id="16" value="&lt;div style=&#39;width: 114.333336px;height:auto;word-break: break-word;&#39;&gt;&lt;div align=&quot;center&quot;&gt;&lt;span style=&quot;font-size:12px;font-family:Arial; line-height: 0;&quot;&gt;&lt;span style=&quot; line-height: normal;&quot;&gt;Register&lt;/span&gt;&lt;/span&gt;&lt;/div&gt;&lt;/div&gt;" style="shape=rect;shadow=0;strokeWidth=2;fillColor=#f4cccc;strokeColor=#000000;opacity=100.0;html=1;nl2Br=0;verticalAlign=middle;align=center;spacingLeft=1.3333334;spacingRight=0;whiteSpace=wrap;gliffyId=3132;" parent="2" vertex="1">
          <mxGeometry x="1175" y="700" width="120" height="60" as="geometry" />
        </mxCell>
        <mxCell id="17" value="&lt;div style=&#39;width: 114.333336px;height:auto;word-break: break-word;&#39;&gt;&lt;div align=&quot;center&quot;&gt;&lt;span style=&quot;font-size:12px;font-family:Arial; line-height: 0;&quot;&gt;&lt;span style=&quot; line-height: normal;&quot;&gt;Provision Agreement&lt;/span&gt;&lt;/span&gt;&lt;/div&gt;&lt;/div&gt;" style="shape=rect;shadow=0;strokeWidth=2;fillColor=#f4cccc;strokeColor=#000000;opacity=100.0;html=1;nl2Br=0;verticalAlign=middle;align=center;spacingLeft=1.3333334;spacingRight=0;whiteSpace=wrap;gliffyId=2970;" parent="2" vertex="1">
          <mxGeometry x="875" y="170" width="120" height="60" as="geometry" />
        </mxCell>
        <mxCell id="18" value="&lt;div style=&#39;width: 114.333336px;height:auto;word-break: break-word;&#39;&gt;&lt;div align=&quot;center&quot;&gt;&lt;span style=&quot;font-size:12px;font-family:Arial; line-height: 0;&quot;&gt;&lt;span style=&quot; line-height: normal;&quot;&gt;Presentation&lt;/span&gt;&lt;/span&gt;&lt;/div&gt;&lt;/div&gt;" style="shape=rect;shadow=0;strokeWidth=2;fillColor=#f4cccc;strokeColor=#000000;opacity=100.0;html=1;nl2Br=0;verticalAlign=middle;align=center;spacingLeft=1.3333334;spacingRight=0;whiteSpace=wrap;gliffyId=2972;" parent="2" vertex="1">
          <mxGeometry x="1210" y="470" width="120" height="60" as="geometry" />
        </mxCell>
        <mxCell id="19" value="&lt;div style=&#39;width: 114.333336px;height:auto;word-break: break-word;&#39;&gt;&lt;div align=&quot;center&quot;&gt;&lt;span style=&quot;font-size:12px;font-family:Arial; line-height: 0;&quot;&gt;&lt;span style=&quot; line-height: normal;&quot;&gt;Product&lt;/span&gt;&lt;/span&gt;&lt;/div&gt;&lt;/div&gt;" style="shape=rect;shadow=0;strokeWidth=2;fillColor=#f4cccc;strokeColor=#000000;opacity=100.0;html=1;nl2Br=0;verticalAlign=middle;align=center;spacingLeft=1.3333334;spacingRight=0;whiteSpace=wrap;gliffyId=2976;" parent="2" vertex="1">
          <mxGeometry x="1210" y="390" width="120" height="60" as="geometry" />
        </mxCell>
        <mxCell id="20" value="&lt;div style=&#39;width: 114.333336px;height:auto;word-break: break-word;&#39;&gt;&lt;div align=&quot;center&quot;&gt;&lt;span style=&quot;font-size:12px;font-family:Arial; line-height: 0;&quot;&gt;&lt;span style=&quot; line-height: normal;&quot;&gt;Ouput Specification&lt;/span&gt;&lt;/span&gt;&lt;/div&gt;&lt;/div&gt;" style="shape=rect;shadow=0;strokeWidth=2;fillColor=#f4cccc;strokeColor=#000000;opacity=100.0;html=1;nl2Br=0;verticalAlign=middle;align=center;spacingLeft=1.3333334;spacingRight=0;whiteSpace=wrap;gliffyId=3030;" parent="2" vertex="1">
          <mxGeometry x="1025" y="170" width="120" height="60" as="geometry" />
        </mxCell>
        <mxCell id="21" value="&lt;div style=&#39;width: 114.333336px;height:auto;word-break: break-word;&#39;&gt;&lt;div align=&quot;center&quot;&gt;&lt;span style=&quot;font-size:12px;font-family:Arial; line-height: 0;&quot;&gt;&lt;span style=&quot; line-height: normal;&quot;&gt;Exchange Specification&lt;/span&gt;&lt;/span&gt;&lt;/div&gt;&lt;/div&gt;" style="shape=rect;shadow=0;strokeWidth=2;fillColor=#f4cccc;strokeColor=#000000;opacity=100.0;html=1;nl2Br=0;verticalAlign=middle;align=center;spacingLeft=1.3333334;spacingRight=0;whiteSpace=wrap;gliffyId=3032;" parent="2" vertex="1">
          <mxGeometry x="1165" y="170" width="120" height="60" as="geometry" />
        </mxCell>
        <mxCell id="22" value="&lt;div style=&#39;width: 114.333336px;height:auto;word-break: break-word;&#39;&gt;&lt;div align=&quot;center&quot;&gt;&lt;span style=&quot;font-size:12px;font-family:Arial; line-height: 0;&quot;&gt;&lt;span style=&quot; line-height: normal;&quot;&gt;Referential Metadata Set&lt;/span&gt;&lt;/span&gt;&lt;/div&gt;&lt;/div&gt;" style="shape=rect;shadow=0;strokeWidth=2;fillColor=#fff2cc;strokeColor=#000000;opacity=100.0;html=1;nl2Br=0;verticalAlign=middle;align=center;spacingLeft=1.3333334;spacingRight=0;whiteSpace=wrap;gliffyId=2956;" parent="2" vertex="1">
          <mxGeometry x="665" y="870" width="120" height="60" as="geometry" />
        </mxCell>
        <mxCell id="23" value="&lt;div style=&#39;width: 114.333336px;height:auto;word-break: break-word;&#39;&gt;&lt;div align=&quot;center&quot;&gt;&lt;span style=&quot;font-size:12px;font-family:Arial; line-height: 0;&quot;&gt;&lt;span style=&quot; line-height: normal;&quot;&gt;Referential Metadata Structure&lt;/span&gt;&lt;/span&gt;&lt;/div&gt;&lt;/div&gt;" style="shape=rect;shadow=0;strokeWidth=2;fillColor=#fff2cc;strokeColor=#000000;opacity=100.0;html=1;nl2Br=0;verticalAlign=middle;align=center;spacingLeft=1.3333334;spacingRight=0;whiteSpace=wrap;gliffyId=2958;" parent="2" vertex="1">
          <mxGeometry x="665" y="700" width="120" height="60" as="geometry" />
        </mxCell>
        <mxCell id="24" value="&lt;div style=&#39;width: 114.333336px;height:auto;word-break: break-word;&#39;&gt;&lt;div align=&quot;center&quot;&gt;&lt;span style=&quot;font-size:12px;font-family:Arial; line-height: 0;&quot;&gt;&lt;span style=&quot; line-height: normal;&quot;&gt;Referential Metadata Attribute&lt;/span&gt;&lt;/span&gt;&lt;/div&gt;&lt;/div&gt;" style="shape=rect;shadow=0;strokeWidth=2;fillColor=#fff2cc;strokeColor=#000000;opacity=100.0;html=1;nl2Br=0;verticalAlign=middle;align=center;spacingLeft=1.3333334;spacingRight=0;whiteSpace=wrap;gliffyId=2962;" parent="2" vertex="1">
          <mxGeometry x="375" y="625" width="120" height="60" as="geometry" />
        </mxCell>
        <mxCell id="25" value="&lt;div style=&#39;width: 114.333336px;height:auto;word-break: break-word;&#39;&gt;&lt;div align=&quot;center&quot;&gt;&lt;span style=&quot;font-size:12px;font-family:Arial; line-height: 0;&quot;&gt;&lt;span style=&quot; line-height: normal;&quot;&gt;Referential Metadata Subject Item&lt;/span&gt;&lt;/span&gt;&lt;/div&gt;&lt;/div&gt;" style="shape=rect;shadow=0;strokeWidth=2;fillColor=#fff2cc;strokeColor=#000000;opacity=100.0;html=1;nl2Br=0;verticalAlign=middle;align=center;spacingLeft=1.3333334;spacingRight=0;whiteSpace=wrap;gliffyId=2964;" parent="2" vertex="1">
          <mxGeometry x="375" y="845" width="120" height="60" as="geometry" />
        </mxCell>
        <mxCell id="26" value="&lt;div style=&#39;width: 114.333336px;height:auto;word-break: break-word;&#39;&gt;&lt;div align=&quot;center&quot;&gt;&lt;span style=&quot;font-size:12px;font-family:Arial; line-height: 0;&quot;&gt;&lt;span style=&quot; line-height: normal;&quot;&gt;Referential Metadata Subject&lt;/span&gt;&lt;/span&gt;&lt;/div&gt;&lt;/div&gt;" style="shape=rect;shadow=0;strokeWidth=2;fillColor=#fff2cc;strokeColor=#000000;opacity=100.0;html=1;nl2Br=0;verticalAlign=middle;align=center;spacingLeft=1.3333334;spacingRight=0;whiteSpace=wrap;gliffyId=3040;" parent="2" vertex="1">
          <mxGeometry x="375" y="725" width="120" height="60" as="geometry" />
        </mxCell>
        <mxCell id="27" value="&lt;div style=&#39;width: 114.333336px;height:auto;word-break: break-word;&#39;&gt;&lt;div align=&quot;center&quot;&gt;&lt;span style=&quot;font-size:12px;font-family:Arial; line-height: 0;&quot;&gt;&lt;span style=&quot; line-height: normal;&quot;&gt;Identifiable Artefact&lt;/span&gt;&lt;/span&gt;&lt;/div&gt;&lt;/div&gt;" style="shape=rect;shadow=0;strokeWidth=2;fillColor=#f9cb9c;strokeColor=#000000;opacity=100.0;html=1;nl2Br=0;verticalAlign=middle;align=center;spacingLeft=1.3333334;spacingRight=0;whiteSpace=wrap;gliffyId=3073;" parent="2" vertex="1">
          <mxGeometry x="190" y="755" width="120" height="60" as="geometry" />
        </mxCell>
        <mxCell id="28" value="&lt;div style=&#39;width: 114.333336px;height:auto;word-break: break-word;&#39;&gt;&lt;div align=&quot;center&quot;&gt;&lt;span style=&quot;font-size:12px;font-family:Arial; line-height: 0;&quot;&gt;&lt;span style=&quot; line-height: normal;&quot;&gt;Referential Metadata Content Item&lt;/span&gt;&lt;/span&gt;&lt;/div&gt;&lt;/div&gt;" style="shape=rect;shadow=0;strokeWidth=2;fillColor=#fff2cc;strokeColor=#000000;opacity=100.0;html=1;nl2Br=0;verticalAlign=middle;align=center;spacingLeft=1.3333334;spacingRight=0;whiteSpace=wrap;gliffyId=2966;" parent="2" vertex="1">
          <mxGeometry x="375" y="925" width="120" height="60" as="geometry" />
        </mxCell>
        <mxCell id="29" value="&lt;div style=&#39;width: 114.333336px;height:auto;word-break: break-word;&#39;&gt;&lt;div align=&quot;center&quot;&gt;&lt;span style=&quot;font-size:12px;font-family:Arial; line-height: 0;&quot;&gt;&lt;span style=&quot; line-height: normal;&quot;&gt;Logical Record&lt;/span&gt;&lt;/span&gt;&lt;/div&gt;&lt;/div&gt;" style="shape=rect;shadow=0;strokeWidth=2;fillColor=#fff2cc;strokeColor=#000000;opacity=100.0;html=1;nl2Br=0;verticalAlign=middle;align=center;spacingLeft=1.3333334;spacingRight=0;whiteSpace=wrap;gliffyId=2829;" parent="2" vertex="1">
          <mxGeometry x="1895" y="810" width="120" height="60" as="geometry" />
        </mxCell>
        <mxCell id="30" value="&lt;div style=&#39;width: 114.333336px;height:auto;word-break: break-word;&#39;&gt;&lt;div align=&quot;center&quot;&gt;&lt;span style=&quot;font-size:12px;font-family:Arial; line-height: 0;&quot;&gt;&lt;span style=&quot; line-height: normal;&quot;&gt;Record Relationship&lt;/span&gt;&lt;/span&gt;&lt;/div&gt;&lt;/div&gt;" style="shape=rect;shadow=0;strokeWidth=2;fillColor=#fff2cc;strokeColor=#000000;opacity=100.0;html=1;nl2Br=0;verticalAlign=middle;align=center;spacingLeft=1.3333334;spacingRight=0;whiteSpace=wrap;gliffyId=2843;" parent="2" vertex="1">
          <mxGeometry x="2170" y="810" width="120" height="60" as="geometry" />
        </mxCell>
        <mxCell id="31" value="&lt;div style=&#39;width: 114.333336px;height:auto;word-break: break-word;&#39;&gt;&lt;div align=&quot;center&quot;&gt;&lt;span style=&quot;font-size:12px;font-family:Arial; line-height: 0;&quot;&gt;&lt;span style=&quot; line-height: normal;&quot;&gt;Data Set&lt;/span&gt;&lt;/span&gt;&lt;/div&gt;&lt;/div&gt;" style="shape=rect;shadow=0;strokeWidth=2;fillColor=#fff2cc;strokeColor=#000000;opacity=100.0;html=1;nl2Br=0;verticalAlign=middle;align=center;spacingLeft=1.3333334;spacingRight=0;whiteSpace=wrap;gliffyId=2845;" parent="2" vertex="1">
          <mxGeometry x="1555" y="870" width="120" height="60" as="geometry" />
        </mxCell>
        <mxCell id="32" value="&lt;div style=&#39;width: 114.333336px;height:auto;word-break: break-word;&#39;&gt;&lt;div align=&quot;center&quot;&gt;&lt;span style=&quot;font-size:12px;font-family:Arial; line-height: 0;&quot;&gt;&lt;span style=&quot; line-height: normal;&quot;&gt;Data Point&lt;/span&gt;&lt;/span&gt;&lt;/div&gt;&lt;/div&gt;" style="shape=rect;shadow=0;strokeWidth=2;fillColor=#fff2cc;strokeColor=#000000;opacity=100.0;html=1;nl2Br=0;verticalAlign=middle;align=center;spacingLeft=1.3333334;spacingRight=0;whiteSpace=wrap;gliffyId=2849;" parent="2" vertex="1">
          <mxGeometry x="1580" y="1178" width="120" height="60" as="geometry" />
        </mxCell>
        <mxCell id="33" value="&lt;div style=&#39;width: 114.333336px;height:auto;word-break: break-word;&#39;&gt;&lt;div align=&quot;center&quot;&gt;&lt;span style=&quot;font-size:12px;font-family:Arial; line-height: 0;&quot;&gt;&lt;span style=&quot; line-height: normal;&quot;&gt;Datum&lt;/span&gt;&lt;/span&gt;&lt;/div&gt;&lt;/div&gt;" style="shape=rect;shadow=0;strokeWidth=2;fillColor=#d9ead3;strokeColor=#000000;opacity=100.0;html=1;nl2Br=0;verticalAlign=middle;align=center;spacingLeft=1.3333334;spacingRight=0;whiteSpace=wrap;gliffyId=2885;" parent="2" vertex="1">
          <mxGeometry x="1270" y="1118" width="120" height="60" as="geometry" />
        </mxCell>
        <mxCell id="34" value="&lt;div style=&#39;width: 114.333336px;height:auto;word-break: break-word;&#39;&gt;&lt;div align=&quot;center&quot;&gt;&lt;span style=&quot;font-size:12px;font-family:Arial; line-height: 0;&quot;&gt;&lt;span style=&quot; line-height: normal;&quot;&gt;Instance Variable&lt;/span&gt;&lt;/span&gt;&lt;/div&gt;&lt;/div&gt;" style="shape=rect;shadow=0;strokeWidth=2;fillColor=#d9ead3;strokeColor=#000000;opacity=100.0;html=1;nl2Br=0;verticalAlign=middle;align=center;spacingLeft=1.3333334;spacingRight=0;whiteSpace=wrap;gliffyId=2891;" parent="2" vertex="1">
          <mxGeometry x="1270" y="1238" width="120" height="60" as="geometry" />
        </mxCell>
        <mxCell id="35" value="&lt;div style=&#39;width: 114.333336px;height:auto;word-break: break-word;&#39;&gt;&lt;div align=&quot;center&quot;&gt;&lt;span style=&quot;font-size:12px;font-family:Arial; line-height: 0;&quot;&gt;&lt;span style=&quot; line-height: normal;&quot;&gt;Unit&lt;/span&gt;&lt;/span&gt;&lt;/div&gt;&lt;/div&gt;" style="shape=rect;shadow=0;strokeWidth=2;fillColor=#d9ead3;strokeColor=#000000;opacity=100.0;html=1;nl2Br=0;verticalAlign=middle;align=center;spacingLeft=1.3333334;spacingRight=0;whiteSpace=wrap;gliffyId=2897;" parent="2" vertex="1">
          <mxGeometry x="1820" y="1118" width="120" height="60" as="geometry" />
        </mxCell>
        <mxCell id="36" value="&lt;div style=&#39;width: 114.333336px;height:auto;word-break: break-word;&#39;&gt;&lt;div align=&quot;center&quot;&gt;&lt;span style=&quot;font-size:12px;font-family:Arial; line-height: 0;&quot;&gt;&lt;span style=&quot; line-height: normal;&quot;&gt;Population&lt;/span&gt;&lt;/span&gt;&lt;/div&gt;&lt;/div&gt;" style="shape=rect;shadow=0;strokeWidth=2;fillColor=#d9ead3;strokeColor=#000000;opacity=100.0;html=1;nl2Br=0;verticalAlign=middle;align=center;spacingLeft=1.3333334;spacingRight=0;whiteSpace=wrap;gliffyId=2899;" parent="2" vertex="1">
          <mxGeometry x="1820" y="1238" width="120" height="60" as="geometry" />
        </mxCell>
        <mxCell id="37" value="&lt;div style=&#39;width: 114.333336px;height:auto;word-break: break-word;&#39;&gt;&lt;div align=&quot;center&quot;&gt;&lt;span style=&quot;font-size:12px;font-family:Arial; line-height: 0;&quot;&gt;&lt;span style=&quot; line-height: normal;&quot;&gt;Unit Type&lt;/span&gt;&lt;/span&gt;&lt;/div&gt;&lt;/div&gt;" style="shape=rect;shadow=0;strokeWidth=2;fillColor=#d9ead3;strokeColor=#000000;opacity=100.0;html=1;nl2Br=0;verticalAlign=middle;align=center;spacingLeft=1.3333334;spacingRight=0;whiteSpace=wrap;gliffyId=2913;" parent="2" vertex="1">
          <mxGeometry x="2040" y="1010" width="120" height="60" as="geometry" />
        </mxCell>
        <mxCell id="38" value="&lt;div style=&#39;width: 114.333336px;height:auto;word-break: break-word;&#39;&gt;&lt;div align=&quot;center&quot;&gt;&lt;span style=&quot;font-size:12px;font-family:Arial; line-height: 0;&quot;&gt;&lt;span style=&quot; line-height: normal;&quot;&gt;Represented Variable&lt;/span&gt;&lt;/span&gt;&lt;/div&gt;&lt;/div&gt;" style="shape=rect;shadow=0;strokeWidth=2;fillColor=#d9ead3;strokeColor=#000000;opacity=100.0;html=1;nl2Br=0;verticalAlign=middle;align=center;spacingLeft=1.3333334;spacingRight=0;whiteSpace=wrap;gliffyId=2924;" parent="2" vertex="1">
          <mxGeometry x="1025" y="70" width="120" height="60" as="geometry" />
        </mxCell>
        <mxCell id="39" style="shape=filledEdge;strokeWidth=2;strokeColor=#000000;fillColor=none;startArrow=none;startFill=0;startSize=6;endArrow=diamond;endFill=1;endSize=12;rounded=0;html=1;nl2Br=0;gliffyId=2803;edgeStyle=orthogonalEdgeStyle;" parent="2" source="5" target="7" edge="1">
          <mxGeometry width="4" height="89" relative="1" as="geometry">
            <Array as="points">
              <mxPoint x="1615" y="610" />
              <mxPoint x="1615" y="640" />
              <mxPoint x="1615" y="670" />
              <mxPoint x="1615" y="700" />
            </Array>
          </mxGeometry>
        </mxCell>
        <mxCell id="40" value="&lt;div style=&#39;width: 17.675px;height:auto;word-break: break-word;&#39;&gt;&lt;div align=&quot;center&quot;&gt;&lt;span style=&quot;font-size:12px;font-family:Arial; line-height: 0;&quot;&gt;&lt;span style=&quot; line-height: normal;&quot;&gt;1&lt;/span&gt;&lt;/span&gt;&lt;/div&gt;&lt;/div&gt;" style="text;html=1;nl2Br=0;points=[];labelBackgroundColor=#FFFFFF;html=1;nl2Br=0;verticalAlign=middle;align=center;spacingLeft=0.0;spacingRight=0;gliffyId=2808;" parent="39" vertex="1">
          <mxGeometry x="0.46666666666666656" relative="1" as="geometry">
            <mxPoint x="-12" as="offset" />
          </mxGeometry>
        </mxCell>
        <mxCell id="41" value="&lt;div style=&#39;width: 30.35px;height:auto;word-break: break-word;&#39;&gt;&lt;div align=&quot;center&quot;&gt;&lt;span style=&quot;font-size:12px;font-family:Arial; line-height: 0;&quot;&gt;&lt;span style=&quot; line-height: normal;&quot;&gt;has&lt;/span&gt;&lt;/span&gt;&lt;/div&gt;&lt;/div&gt;" style="text;html=1;nl2Br=0;points=[];labelBackgroundColor=#FFFFFF;html=1;nl2Br=0;verticalAlign=middle;align=center;spacingLeft=0.0;spacingRight=0;gliffyId=2807;" parent="39" vertex="1">
          <mxGeometry x="-0.15555555555555556" relative="1" as="geometry">
            <mxPoint as="offset" />
          </mxGeometry>
        </mxCell>
        <mxCell id="42" value="&lt;div style=&#39;width: 29.0125px;height:auto;word-break: break-word;&#39;&gt;&lt;div align=&quot;center&quot;&gt;&lt;span style=&quot;font-size:12px;font-family:Arial; line-height: 0;&quot;&gt;&lt;span style=&quot; line-height: normal;&quot;&gt;1..*&lt;/span&gt;&lt;/span&gt;&lt;/div&gt;&lt;/div&gt;" style="text;html=1;nl2Br=0;points=[];labelBackgroundColor=#FFFFFF;html=1;nl2Br=0;verticalAlign=middle;align=center;spacingLeft=0.0;spacingRight=0;gliffyId=2806;" parent="39" vertex="1">
          <mxGeometry x="-0.6666666666666667" relative="1" as="geometry">
            <mxPoint x="-18" y="-5" as="offset" />
          </mxGeometry>
        </mxCell>
        <mxCell id="43" style="shape=filledEdge;strokeWidth=2;strokeColor=#000000;fillColor=none;startArrow=none;startFill=0;startSize=6;endArrow=diamond;endFill=1;endSize=12;rounded=0;html=1;nl2Br=0;gliffyId=2809;exitX=0.5;exitY=1.0;exitPerimeter=0;entryX=0.2928932309150696;entryY=0.0;entryPerimeter=0;" parent="2" source="4" target="7" edge="1">
          <mxGeometry width="4" height="89" relative="1" as="geometry">
            <Array as="points">
              <mxPoint x="1465" y="610" />
              <mxPoint x="1590.147216796875" y="700" />
            </Array>
          </mxGeometry>
        </mxCell>
        <mxCell id="44" value="&lt;div style=&#39;width: 17.675px;height:auto;word-break: break-word;&#39;&gt;&lt;div align=&quot;center&quot;&gt;&lt;span style=&quot;font-size:12px;font-family:Arial; line-height: 0;&quot;&gt;&lt;span style=&quot; line-height: normal;&quot;&gt;1&lt;/span&gt;&lt;/span&gt;&lt;/div&gt;&lt;/div&gt;" style="text;html=1;nl2Br=0;points=[];labelBackgroundColor=#FFFFFF;html=1;nl2Br=0;verticalAlign=middle;align=center;spacingLeft=0.0;spacingRight=0;gliffyId=2810;" parent="43" vertex="1">
          <mxGeometry x="0.46666666666666656" relative="1" as="geometry">
            <mxPoint x="-4" y="12" as="offset" />
          </mxGeometry>
        </mxCell>
        <mxCell id="45" value="&lt;div style=&#39;width: 30.35px;height:auto;word-break: break-word;&#39;&gt;&lt;div align=&quot;center&quot;&gt;&lt;span style=&quot;font-size:12px;font-family:Arial; line-height: 0;&quot;&gt;&lt;span style=&quot; line-height: normal;&quot;&gt;has&lt;/span&gt;&lt;/span&gt;&lt;/div&gt;&lt;/div&gt;" style="text;html=1;nl2Br=0;points=[];labelBackgroundColor=#FFFFFF;html=1;nl2Br=0;verticalAlign=middle;align=center;spacingLeft=0.0;spacingRight=0;gliffyId=2811;" parent="43" vertex="1">
          <mxGeometry x="-0.15555555555555556" relative="1" as="geometry">
            <mxPoint as="offset" />
          </mxGeometry>
        </mxCell>
        <mxCell id="46" value="&lt;div style=&#39;width: 29.0125px;height:auto;word-break: break-word;&#39;&gt;&lt;div align=&quot;center&quot;&gt;&lt;span style=&quot;font-size:12px;font-family:Arial; line-height: 0;&quot;&gt;&lt;span style=&quot; line-height: normal;&quot;&gt;1..*&lt;/span&gt;&lt;/span&gt;&lt;/div&gt;&lt;/div&gt;" style="text;html=1;nl2Br=0;points=[];labelBackgroundColor=#FFFFFF;html=1;nl2Br=0;verticalAlign=middle;align=center;spacingLeft=0.0;spacingRight=0;gliffyId=2812;" parent="43" vertex="1">
          <mxGeometry x="-1" relative="1" as="geometry">
            <mxPoint x="-13" y="10" as="offset" />
          </mxGeometry>
        </mxCell>
        <mxCell id="47" style="shape=filledEdge;strokeWidth=2;strokeColor=#000000;fillColor=none;startArrow=none;startFill=0;startSize=6;endArrow=diamond;endFill=1;endSize=12;rounded=0;html=1;nl2Br=0;gliffyId=3061;exitX=1.0;exitY=0.5;exitPerimeter=0;entryX=0.0;entryY=0.7071067690849304;entryPerimeter=0;" parent="2" source="28" target="22" edge="1">
          <mxGeometry width="4" height="89" relative="1" as="geometry">
            <Array as="points">
              <mxPoint x="495" y="955" />
              <mxPoint x="665" y="912.4263916015625" />
            </Array>
          </mxGeometry>
        </mxCell>
        <mxCell id="48" value="&lt;div style=&#39;width: 55.7px;height:auto;word-break: break-word;&#39;&gt;&lt;div align=&quot;center&quot;&gt;&lt;span style=&quot;font-size:12px;font-family:Arial; line-height: 0;&quot;&gt;&lt;span style=&quot; line-height: normal;&quot;&gt;contains&lt;/span&gt;&lt;/span&gt;&lt;/div&gt;&lt;/div&gt;" style="text;html=1;nl2Br=0;points=[];labelBackgroundColor=#FFFFFF;html=1;nl2Br=0;verticalAlign=middle;align=center;spacingLeft=0.0;spacingRight=0;gliffyId=3063;" parent="47" vertex="1">
          <mxGeometry x="-0.15555555555555556" relative="1" as="geometry">
            <mxPoint as="offset" />
          </mxGeometry>
        </mxCell>
        <mxCell id="49" value="&lt;div style=&#39;width: 29.0125px;height:auto;word-break: break-word;&#39;&gt;&lt;div align=&quot;center&quot;&gt;&lt;span style=&quot;font-size:12px;font-family:Arial; line-height: 0;&quot;&gt;&lt;span style=&quot; line-height: normal;&quot;&gt;1..*&lt;/span&gt;&lt;/span&gt;&lt;/div&gt;&lt;/div&gt;" style="text;html=1;nl2Br=0;points=[];labelBackgroundColor=#FFFFFF;html=1;nl2Br=0;verticalAlign=middle;align=center;spacingLeft=0.0;spacingRight=0;gliffyId=3064;" parent="47" vertex="1">
          <mxGeometry x="-0.8272896335936191" relative="1" as="geometry">
            <mxPoint x="3" y="12" as="offset" />
          </mxGeometry>
        </mxCell>
        <mxCell id="50" style="shape=filledEdge;strokeWidth=2;strokeColor=#000000;fillColor=none;startArrow=none;startFill=0;startSize=6;endArrow=diamond;endFill=1;endSize=12;rounded=0;html=1;nl2Br=0;gliffyId=2813;exitX=0.5;exitY=1.0;exitPerimeter=0;entryX=0.7666666507720947;entryY=0.0;entryPerimeter=0;" parent="2" source="6" target="7" edge="1">
          <mxGeometry width="4" height="89" relative="1" as="geometry">
            <Array as="points">
              <mxPoint x="1765" y="610" />
              <mxPoint x="1647" y="700" />
            </Array>
          </mxGeometry>
        </mxCell>
        <mxCell id="51" value="&lt;div style=&#39;width: 17.675px;height:auto;word-break: break-word;&#39;&gt;&lt;div align=&quot;center&quot;&gt;&lt;span style=&quot;font-size:12px;font-family:Arial; line-height: 0;&quot;&gt;&lt;span style=&quot; line-height: normal;&quot;&gt;1&lt;/span&gt;&lt;/span&gt;&lt;/div&gt;&lt;/div&gt;" style="text;html=1;nl2Br=0;points=[];labelBackgroundColor=#FFFFFF;html=1;nl2Br=0;verticalAlign=middle;align=center;spacingLeft=0.0;spacingRight=0;gliffyId=2814;" parent="50" vertex="1">
          <mxGeometry x="0.46895467057080786" relative="1" as="geometry">
            <mxPoint x="-28" y="3" as="offset" />
          </mxGeometry>
        </mxCell>
        <mxCell id="52" value="&lt;div style=&#39;width: 30.35px;height:auto;word-break: break-word;&#39;&gt;&lt;div align=&quot;center&quot;&gt;&lt;span style=&quot;font-size:12px;font-family:Arial; line-height: 0;&quot;&gt;&lt;span style=&quot; line-height: normal;&quot;&gt;has&lt;/span&gt;&lt;/span&gt;&lt;/div&gt;&lt;/div&gt;" style="text;html=1;nl2Br=0;points=[];labelBackgroundColor=#FFFFFF;html=1;nl2Br=0;verticalAlign=middle;align=center;spacingLeft=0.0;spacingRight=0;gliffyId=2815;" parent="50" vertex="1">
          <mxGeometry x="-0.15555555555555556" relative="1" as="geometry">
            <mxPoint as="offset" />
          </mxGeometry>
        </mxCell>
        <mxCell id="53" value="&lt;div style=&#39;width: 29.0125px;height:auto;word-break: break-word;&#39;&gt;&lt;div align=&quot;center&quot;&gt;&lt;span style=&quot;font-size:12px;font-family:Arial; line-height: 0;&quot;&gt;&lt;span style=&quot; line-height: normal;&quot;&gt;1..*&lt;/span&gt;&lt;/span&gt;&lt;/div&gt;&lt;/div&gt;" style="text;html=1;nl2Br=0;points=[];labelBackgroundColor=#FFFFFF;html=1;nl2Br=0;verticalAlign=middle;align=center;spacingLeft=0.0;spacingRight=0;gliffyId=2816;" parent="50" vertex="1">
          <mxGeometry x="-1" relative="1" as="geometry">
            <mxPoint x="12" y="10" as="offset" />
          </mxGeometry>
        </mxCell>
        <mxCell id="54" style="shape=filledEdge;strokeWidth=2;strokeColor=#000000;fillColor=none;startArrow=none;startFill=0;startSize=6;endArrow=diamond;endFill=1;endSize=12;rounded=0;html=1;nl2Br=0;gliffyId=2865;exitX=0.5;exitY=0.0;exitPerimeter=0;entryX=0.7071067690849304;entryY=1.0;entryPerimeter=0;" parent="2" source="215" target="31" edge="1">
          <mxGeometry width="4" height="89" relative="1" as="geometry">
            <Array as="points">
              <mxPoint x="1670" y="1010" />
              <mxPoint x="1639.852783203125" y="930" />
            </Array>
          </mxGeometry>
        </mxCell>
        <mxCell id="55" value="&lt;div style=&#39;width: 17.675px;height:auto;word-break: break-word;&#39;&gt;&lt;div align=&quot;center&quot;&gt;&lt;span style=&quot;font-size:12px;font-family:Arial; line-height: 0;&quot;&gt;&lt;span style=&quot; line-height: normal;&quot;&gt;1&lt;/span&gt;&lt;/span&gt;&lt;/div&gt;&lt;/div&gt;" style="text;html=1;nl2Br=0;points=[];labelBackgroundColor=#FFFFFF;html=1;nl2Br=0;verticalAlign=middle;align=center;spacingLeft=0.0;spacingRight=0;gliffyId=2866;" parent="54" vertex="1">
          <mxGeometry x="0.5206131556743769" relative="1" as="geometry">
            <mxPoint x="13" y="-10" as="offset" />
          </mxGeometry>
        </mxCell>
        <mxCell id="56" value="&lt;div style=&#39;width: 30.35px;height:auto;word-break: break-word;&#39;&gt;&lt;div align=&quot;center&quot;&gt;&lt;span style=&quot;font-size:12px;font-family:Arial; line-height: 0;&quot;&gt;&lt;span style=&quot; line-height: normal;&quot;&gt;has&lt;/span&gt;&lt;/span&gt;&lt;/div&gt;&lt;/div&gt;" style="text;html=1;nl2Br=0;points=[];labelBackgroundColor=#FFFFFF;html=1;nl2Br=0;verticalAlign=middle;align=center;spacingLeft=0.0;spacingRight=0;gliffyId=2867;" parent="54" vertex="1">
          <mxGeometry x="-0.15555555555555556" relative="1" as="geometry">
            <mxPoint y="-4" as="offset" />
          </mxGeometry>
        </mxCell>
        <mxCell id="57" value="&lt;div style=&#39;width: 29.0125px;height:auto;word-break: break-word;&#39;&gt;&lt;div align=&quot;center&quot;&gt;&lt;span style=&quot;font-size:12px;font-family:Arial; line-height: 0;&quot;&gt;&lt;span style=&quot; line-height: normal;&quot;&gt;0..*&lt;/span&gt;&lt;/span&gt;&lt;/div&gt;&lt;/div&gt;" style="text;html=1;nl2Br=0;points=[];labelBackgroundColor=#FFFFFF;html=1;nl2Br=0;verticalAlign=middle;align=center;spacingLeft=0.0;spacingRight=0;gliffyId=2868;" parent="54" vertex="1">
          <mxGeometry x="-0.675" relative="1" as="geometry">
            <mxPoint x="20" y="3" as="offset" />
          </mxGeometry>
        </mxCell>
        <mxCell id="58" style="shape=filledEdge;strokeWidth=2;strokeColor=#000000;fillColor=none;startArrow=none;startFill=0;startSize=6;endArrow=diamond;endFill=1;endSize=12;rounded=0;html=1;nl2Br=0;gliffyId=2869;exitX=0.5;exitY=0.0;exitPerimeter=0;entryX=0.5;entryY=1.0;entryPerimeter=0;" parent="2" source="32" target="215" edge="1">
          <mxGeometry width="4" height="89" relative="1" as="geometry">
            <Array as="points">
              <mxPoint x="1640" y="1178" />
              <mxPoint x="1670" y="1070" />
            </Array>
          </mxGeometry>
        </mxCell>
        <mxCell id="59" value="0..1" style="text;html=1;nl2Br=0;points=[];labelBackgroundColor=#FFFFFF;html=1;nl2Br=0;verticalAlign=middle;align=center;spacingLeft=0.0;spacingRight=0;gliffyId=2870;" parent="58" vertex="1">
          <mxGeometry x="0.5714285714285714" relative="1" as="geometry">
            <mxPoint x="16" y="-3" as="offset" />
          </mxGeometry>
        </mxCell>
        <mxCell id="60" value="&lt;div style=&#39;width: 47.7px;height:auto;word-break: break-word;&#39;&gt;&lt;div align=&quot;center&quot;&gt;&lt;span style=&quot;font-size:12px;font-family:Arial; line-height: 0;&quot;&gt;&lt;span style=&quot; line-height: normal;&quot;&gt;groups&lt;/span&gt;&lt;/span&gt;&lt;/div&gt;&lt;/div&gt;" style="text;html=1;nl2Br=0;points=[];labelBackgroundColor=#FFFFFF;html=1;nl2Br=0;verticalAlign=middle;align=center;spacingLeft=0.0;spacingRight=0;gliffyId=2871;" parent="58" vertex="1">
          <mxGeometry x="-0.15555555555555556" relative="1" as="geometry">
            <mxPoint as="offset" />
          </mxGeometry>
        </mxCell>
        <mxCell id="61" value="&lt;div style=&#39;width: 29.0125px;height:auto;word-break: break-word;&#39;&gt;&lt;div align=&quot;center&quot;&gt;&lt;span style=&quot;font-size:12px;font-family:Arial; line-height: 0;&quot;&gt;&lt;span style=&quot; line-height: normal;&quot;&gt;1..*&lt;/span&gt;&lt;/span&gt;&lt;/div&gt;&lt;/div&gt;" style="text;html=1;nl2Br=0;points=[];labelBackgroundColor=#FFFFFF;html=1;nl2Br=0;verticalAlign=middle;align=center;spacingLeft=0.0;spacingRight=0;gliffyId=2872;" parent="58" vertex="1">
          <mxGeometry x="-0.6857142857142857" relative="1" as="geometry">
            <mxPoint x="16" y="5" as="offset" />
          </mxGeometry>
        </mxCell>
        <mxCell id="62" style="shape=note;size=10;shadow=0;strokeWidth=1;fillColor=#FFFFFF;strokeColor=#000000;opacity=100.0;gliffyId=3159;" parent="2" vertex="1">
          <mxGeometry x="587" y="1356.5" width="968" height="46" as="geometry" />
        </mxCell>
        <mxCell id="63" style="shape=filledEdge;strokeWidth=2;strokeColor=#000000;fillColor=none;startArrow=none;startFill=0;startSize=6;endArrow=diamond;endFill=1;endSize=12;rounded=0;html=1;nl2Br=0;gliffyId=2881;edgeStyle=orthogonalEdgeStyle;" parent="2" source="29" target="7" edge="1">
          <mxGeometry width="4" height="89" relative="1" as="geometry">
            <Array as="points">
              <mxPoint x="1895" y="840" />
              <mxPoint x="1646" y="840" />
              <mxPoint x="1646" y="760" />
            </Array>
          </mxGeometry>
        </mxCell>
        <mxCell id="64" value="&lt;div style=&#39;width: 17.675px;height:auto;word-break: break-word;&#39;&gt;&lt;div align=&quot;center&quot;&gt;&lt;span style=&quot;font-size:12px;font-family:Arial; line-height: 0;&quot;&gt;&lt;span style=&quot; line-height: normal;&quot;&gt;1&lt;/span&gt;&lt;/span&gt;&lt;/div&gt;&lt;/div&gt;" style="text;html=1;nl2Br=0;points=[];labelBackgroundColor=#FFFFFF;html=1;nl2Br=0;verticalAlign=middle;align=center;spacingLeft=0.0;spacingRight=0;gliffyId=2882;" parent="63" vertex="1">
          <mxGeometry x="0.882658607464774" relative="1" as="geometry">
            <mxPoint x="19" y="-10" as="offset" />
          </mxGeometry>
        </mxCell>
        <mxCell id="65" value="&lt;div style=&#39;width: 30.35px;height:auto;word-break: break-word;&#39;&gt;&lt;div align=&quot;center&quot;&gt;&lt;span style=&quot;font-size:12px;font-family:Arial; line-height: 0;&quot;&gt;&lt;span style=&quot; line-height: normal;&quot;&gt;has&lt;/span&gt;&lt;/span&gt;&lt;/div&gt;&lt;/div&gt;" style="text;html=1;nl2Br=0;points=[];labelBackgroundColor=#FFFFFF;html=1;nl2Br=0;verticalAlign=middle;align=center;spacingLeft=0.0;spacingRight=0;gliffyId=2883;" parent="63" vertex="1">
          <mxGeometry x="-0.15555555555555556" relative="1" as="geometry">
            <mxPoint as="offset" />
          </mxGeometry>
        </mxCell>
        <mxCell id="66" value="&lt;div style=&#39;width: 29.0125px;height:auto;word-break: break-word;&#39;&gt;&lt;div align=&quot;center&quot;&gt;&lt;span style=&quot;font-size:12px;font-family:Arial; line-height: 0;&quot;&gt;&lt;span style=&quot; line-height: normal;&quot;&gt;0..*&lt;/span&gt;&lt;/span&gt;&lt;/div&gt;&lt;/div&gt;" style="text;html=1;nl2Br=0;points=[];labelBackgroundColor=#FFFFFF;html=1;nl2Br=0;verticalAlign=middle;align=center;spacingLeft=0.0;spacingRight=0;gliffyId=2884;" parent="63" vertex="1">
          <mxGeometry x="-0.8905775075987842" relative="1" as="geometry">
            <mxPoint y="10" as="offset" />
          </mxGeometry>
        </mxCell>
        <mxCell id="67" style="shape=filledEdge;strokeWidth=2;strokeColor=#000000;fillColor=none;startArrow=none;startFill=0;startSize=6;endArrow=diamond;endFill=1;endSize=12;rounded=0;html=1;nl2Br=0;gliffyId=2887;exitX=1.0;exitY=0.5;exitPerimeter=0;entryX=1.1102230246251565E-16;entryY=0.2928932309150696;entryPerimeter=0;" parent="2" source="33" target="32" edge="1">
          <mxGeometry width="4" height="89" relative="1" as="geometry">
            <Array as="points">
              <mxPoint x="1390" y="1148" />
              <mxPoint x="1580" y="1195.5736083984375" />
            </Array>
          </mxGeometry>
        </mxCell>
        <mxCell id="68" value="&lt;div style=&#39;width: 17.675px;height:auto;word-break: break-word;&#39;&gt;&lt;div align=&quot;center&quot;&gt;&lt;span style=&quot;font-size:12px;font-family:Arial; line-height: 0;&quot;&gt;&lt;span style=&quot; line-height: normal;&quot;&gt;1&lt;/span&gt;&lt;/span&gt;&lt;/div&gt;&lt;/div&gt;" style="text;html=1;nl2Br=0;points=[];labelBackgroundColor=#FFFFFF;html=1;nl2Br=0;verticalAlign=middle;align=center;spacingLeft=0.0;spacingRight=0;gliffyId=2888;" parent="67" vertex="1">
          <mxGeometry x="0.7560640191919117" relative="1" as="geometry">
            <mxPoint y="-13" as="offset" />
          </mxGeometry>
        </mxCell>
        <mxCell id="69" value="&lt;div style=&#39;width: 30.35px;height:auto;word-break: break-word;&#39;&gt;&lt;div align=&quot;center&quot;&gt;&lt;span style=&quot;font-size:12px;font-family:Arial; line-height: 0;&quot;&gt;&lt;span style=&quot; line-height: normal;&quot;&gt;has&lt;/span&gt;&lt;/span&gt;&lt;/div&gt;&lt;/div&gt;" style="text;html=1;nl2Br=0;points=[];labelBackgroundColor=#FFFFFF;html=1;nl2Br=0;verticalAlign=middle;align=center;spacingLeft=0.0;spacingRight=0;gliffyId=2889;" parent="67" vertex="1">
          <mxGeometry x="-0.15555555555555556" relative="1" as="geometry">
            <mxPoint as="offset" />
          </mxGeometry>
        </mxCell>
        <mxCell id="70" value="&lt;div style=&#39;width: 27.6875px;height:auto;word-break: break-word;&#39;&gt;&lt;div align=&quot;center&quot;&gt;&lt;span style=&quot;font-size:12px;font-family:Arial; line-height: 0;&quot;&gt;&lt;span style=&quot; line-height: normal;&quot;&gt;0,1&lt;/span&gt;&lt;/span&gt;&lt;/div&gt;&lt;/div&gt;" style="text;html=1;nl2Br=0;points=[];labelBackgroundColor=#FFFFFF;html=1;nl2Br=0;verticalAlign=middle;align=center;spacingLeft=0.0;spacingRight=0;gliffyId=2890;" parent="67" vertex="1">
          <mxGeometry x="-0.8187288754382542" relative="1" as="geometry">
            <mxPoint y="-15" as="offset" />
          </mxGeometry>
        </mxCell>
        <mxCell id="71" style="shape=filledEdge;strokeWidth=2;strokeColor=#000000;fillColor=none;startArrow=none;startFill=0;startSize=6;endArrow=diamond;endFill=1;endSize=12;rounded=0;html=1;nl2Br=0;gliffyId=2909;edgeStyle=orthogonalEdgeStyle;" parent="2" source="36" target="36" edge="1">
          <mxGeometry width="4" height="89" relative="1" as="geometry">
            <Array as="points">
              <mxPoint x="1940" y="1268" />
              <mxPoint x="1980" y="1268" />
              <mxPoint x="1980" y="1338" />
              <mxPoint x="1914" y="1338" />
              <mxPoint x="1914" y="1298" />
            </Array>
          </mxGeometry>
        </mxCell>
        <mxCell id="72" value="&lt;div style=&#39;width: 29.0125px;height:auto;word-break: break-word;&#39;&gt;&lt;div align=&quot;center&quot;&gt;&lt;span style=&quot;font-size:12px;font-family:Arial; line-height: 0;&quot;&gt;&lt;span style=&quot; line-height: normal;&quot;&gt;0..*&lt;/span&gt;&lt;/span&gt;&lt;/div&gt;&lt;/div&gt;" style="text;html=1;nl2Br=0;points=[];labelBackgroundColor=#FFFFFF;html=1;nl2Br=0;verticalAlign=middle;align=center;spacingLeft=0.0;spacingRight=0;gliffyId=2910;" parent="71" vertex="1">
          <mxGeometry x="-0.8055555555555556" relative="1" as="geometry">
            <mxPoint x="-2" y="11" as="offset" />
          </mxGeometry>
        </mxCell>
        <mxCell id="73" value="&lt;div style=&#39;width: 73.7125px;height:auto;word-break: break-word;&#39;&gt;&lt;div align=&quot;center&quot;&gt;&lt;span style=&quot;font-size:12px;font-family:Arial; line-height: 0;&quot;&gt;&lt;span style=&quot; line-height: normal;&quot;&gt;parent-child&lt;/span&gt;&lt;/span&gt;&lt;/div&gt;&lt;/div&gt;" style="text;html=1;nl2Br=0;points=[];labelBackgroundColor=#FFFFFF;html=1;nl2Br=0;verticalAlign=middle;align=center;spacingLeft=0.0;spacingRight=0;gliffyId=2911;" parent="71" vertex="1">
          <mxGeometry x="-0.15555555555555556" relative="1" as="geometry">
            <mxPoint as="offset" />
          </mxGeometry>
        </mxCell>
        <mxCell id="74" style="shape=filledEdge;strokeWidth=2;strokeColor=#000000;fillColor=none;startArrow=none;startFill=0;startSize=6;endArrow=diamond;endFill=1;endSize=12;rounded=0;html=1;nl2Br=0;gliffyId=3048;edgeStyle=orthogonalEdgeStyle;" parent="2" source="24" target="24" edge="1">
          <mxGeometry width="4" height="89" relative="1" as="geometry">
            <Array as="points">
              <mxPoint x="495" y="642.5735473632812" />
              <mxPoint x="535" y="642.5735473632812" />
              <mxPoint x="535" y="585" />
              <mxPoint x="467.6666564941406" y="585" />
              <mxPoint x="467.6666564941406" y="625" />
            </Array>
          </mxGeometry>
        </mxCell>
        <mxCell id="75" value="&lt;div style=&#39;width: 29.0125px;height:auto;word-break: break-word;&#39;&gt;&lt;div align=&quot;center&quot;&gt;&lt;span style=&quot;font-size:12px;font-family:Arial; line-height: 0;&quot;&gt;&lt;span style=&quot; line-height: normal;&quot;&gt;0..*&lt;/span&gt;&lt;/span&gt;&lt;/div&gt;&lt;/div&gt;" style="text;html=1;nl2Br=0;points=[];labelBackgroundColor=#FFFFFF;html=1;nl2Br=0;verticalAlign=middle;align=center;spacingLeft=0.0;spacingRight=0;gliffyId=3049;" parent="74" vertex="1">
          <mxGeometry x="-0.7559867747602069" relative="1" as="geometry">
            <mxPoint x="-4" y="-11" as="offset" />
          </mxGeometry>
        </mxCell>
        <mxCell id="76" value="&lt;div style=&#39;width: 73.7125px;height:auto;word-break: break-word;&#39;&gt;&lt;div align=&quot;center&quot;&gt;&lt;span style=&quot;font-size:12px;font-family:Arial; line-height: 0;&quot;&gt;&lt;span style=&quot; line-height: normal;&quot;&gt;parent-child&lt;/span&gt;&lt;/span&gt;&lt;/div&gt;&lt;/div&gt;" style="text;html=1;nl2Br=0;points=[];labelBackgroundColor=#FFFFFF;html=1;nl2Br=0;verticalAlign=middle;align=center;spacingLeft=0.0;spacingRight=0;gliffyId=3050;" parent="74" vertex="1">
          <mxGeometry x="-0.3282208588957056" relative="1" as="geometry">
            <mxPoint y="-15" as="offset" />
          </mxGeometry>
        </mxCell>
        <mxCell id="77" style="shape=filledEdge;strokeWidth=2;strokeColor=#000000;fillColor=none;startArrow=none;startFill=0;startSize=6;endArrow=block;endFill=0;endSize=6;rounded=0;gliffyId=2817;exitX=0.5;exitY=0.0;exitPerimeter=0;entryX=0.2928932309150696;entryY=1.0;entryPerimeter=0;" parent="2" source="4" target="3" edge="1">
          <mxGeometry width="129" height="96" relative="1" as="geometry">
            <Array as="points">
              <mxPoint x="1465" y="550" />
              <mxPoint x="1590.147216796875" y="450" />
            </Array>
          </mxGeometry>
        </mxCell>
        <mxCell id="78" style="shape=filledEdge;strokeWidth=2;strokeColor=#000000;fillColor=none;startArrow=none;startFill=0;startSize=6;endArrow=block;endFill=0;endSize=6;rounded=0;gliffyId=2821;edgeStyle=orthogonalEdgeStyle;" parent="2" source="5" target="3" edge="1">
          <mxGeometry width="129" height="96" relative="1" as="geometry">
            <Array as="points">
              <mxPoint x="1615" y="550" />
              <mxPoint x="1615" y="450" />
            </Array>
          </mxGeometry>
        </mxCell>
        <mxCell id="79" style="shape=filledEdge;strokeWidth=2;strokeColor=#000000;fillColor=none;startArrow=none;startFill=0;startSize=6;endArrow=block;endFill=0;endSize=6;rounded=0;gliffyId=2822;exitX=0.5;exitY=0.0;exitPerimeter=0;entryX=0.7071067690849304;entryY=1.0;entryPerimeter=0;" parent="2" source="6" target="3" edge="1">
          <mxGeometry width="129" height="96" relative="1" as="geometry">
            <Array as="points">
              <mxPoint x="1765" y="550" />
              <mxPoint x="1639.852783203125" y="450" />
            </Array>
          </mxGeometry>
        </mxCell>
        <mxCell id="80" style="shape=filledEdge;strokeWidth=2;strokeColor=#000000;fillColor=none;startArrow=none;startFill=0;startSize=6;endArrow=block;endFill=0;endSize=6;rounded=0;gliffyId=2827;exitX=0.0;exitY=0.5666666626930237;exitPerimeter=0;entryX=1.0;entryY=0.2928932309150696;entryPerimeter=0;" parent="2" source="8" target="7" edge="1">
          <mxGeometry width="129" height="96" relative="1" as="geometry">
            <Array as="points">
              <mxPoint x="1730" y="694" />
              <mxPoint x="1675" y="717.5736083984375" />
            </Array>
          </mxGeometry>
        </mxCell>
        <mxCell id="81" style="shape=filledEdge;strokeWidth=2;strokeColor=#000000;fillColor=none;startArrow=none;startFill=0;startSize=6;endArrow=block;endFill=0;endSize=6;rounded=0;gliffyId=2943;exitX=0.5;exitY=0.0;exitPerimeter=0;entryX=0.2928932309150696;entryY=1.0;entryPerimeter=0;" parent="2" source="11" target="12" edge="1">
          <mxGeometry width="129" height="96" relative="1" as="geometry">
            <Array as="points">
              <mxPoint x="995" y="870" />
              <mxPoint x="1060.147216796875" y="760" />
            </Array>
          </mxGeometry>
        </mxCell>
        <mxCell id="82" style="shape=filledEdge;strokeWidth=2;strokeColor=#000000;fillColor=none;startArrow=none;startFill=0;startSize=6;endArrow=block;endFill=0;endSize=6;rounded=0;gliffyId=2944;exitX=0.5;exitY=0.0;exitPerimeter=0;entryX=0.7071067690849304;entryY=1.0;entryPerimeter=0;" parent="2" source="10" target="12" edge="1">
          <mxGeometry width="129" height="96" relative="1" as="geometry">
            <Array as="points">
              <mxPoint x="1165" y="870" />
              <mxPoint x="1109.852783203125" y="760" />
            </Array>
          </mxGeometry>
        </mxCell>
        <mxCell id="83" style="shape=filledEdge;strokeWidth=2;strokeColor=#000000;fillColor=none;startArrow=none;startFill=0;startSize=6;endArrow=block;endFill=0;endSize=6;rounded=0;gliffyId=2828;exitX=0.0;exitY=0.5;exitPerimeter=0;entryX=0.988;entryY=0.67;entryDx=0;entryDy=0;entryPerimeter=0;" parent="2" source="9" target="7" edge="1">
          <mxGeometry width="129" height="96" relative="1" as="geometry">
            <mxPoint x="1675" y="740" as="targetPoint" />
            <Array as="points">
              <mxPoint x="1730" y="770" />
            </Array>
          </mxGeometry>
        </mxCell>
        <mxCell id="84" style="shape=filledEdge;strokeWidth=2;strokeColor=#000000;fillColor=none;startArrow=none;startFill=0;startSize=6;endArrow=block;endFill=0;endSize=6;rounded=0;gliffyId=2948;edgeStyle=orthogonalEdgeStyle;" parent="2" source="31" target="13" edge="1">
          <mxGeometry width="129" height="96" relative="1" as="geometry">
            <Array as="points">
              <mxPoint x="1555" y="887.5736083984375" />
              <mxPoint x="1315" y="887.5736083984375" />
              <mxPoint x="1315" y="592.4263916015625" />
              <mxPoint x="1145" y="592.4263916015625" />
            </Array>
          </mxGeometry>
        </mxCell>
        <mxCell id="85" style="shape=filledEdge;strokeWidth=2;strokeColor=#000000;fillColor=none;startArrow=none;startFill=0;startSize=6;endArrow=block;endFill=0;endSize=6;rounded=0;gliffyId=3006;edgeStyle=orthogonalEdgeStyle;" parent="2" source="22" target="13" edge="1">
          <mxGeometry width="129" height="96" relative="1" as="geometry">
            <Array as="points">
              <mxPoint x="785" y="887.5736083984375" />
              <mxPoint x="905" y="887.5736083984375" />
              <mxPoint x="905" y="592.4263916015625" />
              <mxPoint x="1025" y="592.4263916015625" />
            </Array>
          </mxGeometry>
        </mxCell>
        <mxCell id="86" style="shape=filledEdge;strokeWidth=2;strokeColor=#000000;fillColor=none;startArrow=none;startFill=0;startSize=6;endArrow=block;endFill=0;endSize=6;rounded=0;gliffyId=3025;edgeStyle=orthogonalEdgeStyle;" parent="2" source="23" target="14" edge="1">
          <mxGeometry width="129" height="96" relative="1" as="geometry">
            <Array as="points">
              <mxPoint x="785" y="730" />
              <mxPoint x="815" y="730" />
              <mxPoint x="815" y="340" />
              <mxPoint x="1025" y="340" />
            </Array>
          </mxGeometry>
        </mxCell>
        <mxCell id="87" style="shape=filledEdge;strokeWidth=2;strokeColor=#000000;fillColor=none;startArrow=none;startFill=0;startSize=6;endArrow=block;endFill=0;endSize=6;rounded=0;gliffyId=3035;edgeStyle=orthogonalEdgeStyle;" parent="2" source="7" target="14" edge="1">
          <mxGeometry width="129" height="96" relative="1" as="geometry">
            <Array as="points">
              <mxPoint x="1555" y="730" />
              <mxPoint x="1350" y="730" />
              <mxPoint x="1350" y="340" />
              <mxPoint x="1145" y="340" />
            </Array>
          </mxGeometry>
        </mxCell>
        <mxCell id="88" style="shape=filledEdge;strokeWidth=2;strokeColor=#000000;fillColor=none;startArrow=none;startFill=0;startSize=6;endArrow=diamond;endFill=0;endSize=12;rounded=0;html=1;nl2Br=0;gliffyId=2832;edgeStyle=orthogonalEdgeStyle;" parent="2" source="3" target="29" edge="1">
          <mxGeometry width="100" height="100" relative="1" as="geometry">
            <Array as="points">
              <mxPoint x="1675" y="420" />
              <mxPoint x="1955" y="420" />
              <mxPoint x="1955" y="810" />
            </Array>
          </mxGeometry>
        </mxCell>
        <mxCell id="89" value="&lt;div style=&#39;width: 29.0125px;height:auto;word-break: break-word;&#39;&gt;&lt;div align=&quot;center&quot;&gt;&lt;span style=&quot;font-size:12px;font-family:Arial; line-height: 0;&quot;&gt;&lt;span style=&quot; line-height: normal;&quot;&gt;0..*&lt;/span&gt;&lt;/span&gt;&lt;/div&gt;&lt;/div&gt;" style="text;html=1;nl2Br=0;points=[];labelBackgroundColor=#FFFFFF;html=1;nl2Br=0;verticalAlign=middle;align=center;spacingLeft=0.0;spacingRight=0;gliffyId=2837;" parent="88" vertex="1">
          <mxGeometry x="0.9465501859793668" relative="1" as="geometry">
            <mxPoint x="21" y="-3" as="offset" />
          </mxGeometry>
        </mxCell>
        <mxCell id="90" value="&lt;div style=&#39;width: 47.7px;height:auto;word-break: break-word;&#39;&gt;&lt;div align=&quot;center&quot;&gt;&lt;span style=&quot;font-size:12px;font-family:Arial; line-height: 0;&quot;&gt;&lt;span style=&quot; line-height: normal;&quot;&gt;groups&lt;/span&gt;&lt;/span&gt;&lt;/div&gt;&lt;/div&gt;" style="text;html=1;nl2Br=0;points=[];labelBackgroundColor=#FFFFFF;html=1;nl2Br=0;verticalAlign=middle;align=center;spacingLeft=0.0;spacingRight=0;gliffyId=2836;" parent="88" vertex="1">
          <mxGeometry x="-0.4859890915148235" relative="1" as="geometry">
            <mxPoint as="offset" />
          </mxGeometry>
        </mxCell>
        <mxCell id="91" value="&lt;div style=&#39;width: 29.0125px;height:auto;word-break: break-word;&#39;&gt;&lt;div align=&quot;center&quot;&gt;&lt;span style=&quot;font-size:12px;font-family:Arial;color:rgb(0, 0, 0); line-height: 0;&quot;&gt;&lt;span style=&quot; line-height: normal;&quot;&gt;0..*&lt;/span&gt;&lt;/span&gt;&lt;/div&gt;&lt;/div&gt;" style="text;html=1;nl2Br=0;points=[];labelBackgroundColor=#FFFFFF;html=1;nl2Br=0;verticalAlign=middle;align=center;spacingLeft=0.0;spacingRight=0;gliffyId=2835;" parent="88" vertex="1">
          <mxGeometry x="-0.9014925373134328" relative="1" as="geometry">
            <mxPoint x="-16" y="-12" as="offset" />
          </mxGeometry>
        </mxCell>
        <mxCell id="92" style="shape=filledEdge;strokeWidth=2;strokeColor=#000000;fillColor=none;startArrow=none;startFill=0;startSize=6;endArrow=diamond;endFill=0;endSize=12;rounded=0;html=1;nl2Br=0;gliffyId=2893;exitX=1.0;exitY=0.5;exitPerimeter=0;entryX=0.0;entryY=0.7071067690849304;entryPerimeter=0;" parent="2" source="34" target="32" edge="1">
          <mxGeometry width="100" height="100" relative="1" as="geometry">
            <Array as="points">
              <mxPoint x="1390" y="1268" />
              <mxPoint x="1580" y="1220.4263916015625" />
            </Array>
          </mxGeometry>
        </mxCell>
        <mxCell id="93" value="&lt;div style=&#39;width: 29.0125px;height:auto;word-break: break-word;&#39;&gt;&lt;div align=&quot;center&quot;&gt;&lt;span style=&quot;font-size:12px;font-family:Arial; line-height: 0;&quot;&gt;&lt;span style=&quot; line-height: normal;&quot;&gt;0..*&lt;/span&gt;&lt;/span&gt;&lt;/div&gt;&lt;/div&gt;" style="text;html=1;nl2Br=0;points=[];labelBackgroundColor=#FFFFFF;html=1;nl2Br=0;verticalAlign=middle;align=center;spacingLeft=0.0;spacingRight=0;gliffyId=2894;" parent="92" vertex="1">
          <mxGeometry x="0.776470588235294" relative="1" as="geometry">
            <mxPoint y="14" as="offset" />
          </mxGeometry>
        </mxCell>
        <mxCell id="94" value="&lt;div style=&#39;width: 30.35px;height:auto;word-break: break-word;&#39;&gt;&lt;div align=&quot;center&quot;&gt;&lt;span style=&quot;font-size:12px;font-family:Arial; line-height: 0;&quot;&gt;&lt;span style=&quot; line-height: normal;&quot;&gt;has&lt;/span&gt;&lt;/span&gt;&lt;/div&gt;&lt;/div&gt;" style="text;html=1;nl2Br=0;points=[];labelBackgroundColor=#FFFFFF;html=1;nl2Br=0;verticalAlign=middle;align=center;spacingLeft=0.0;spacingRight=0;gliffyId=2895;" parent="92" vertex="1">
          <mxGeometry x="-0.08235294117647063" relative="1" as="geometry">
            <mxPoint as="offset" />
          </mxGeometry>
        </mxCell>
        <mxCell id="95" value="&lt;div style=&#39;width: 29.0125px;height:auto;word-break: break-word;&#39;&gt;&lt;div align=&quot;center&quot;&gt;&lt;span style=&quot;font-size:12px;font-family:Arial; line-height: 0;&quot;&gt;&lt;span style=&quot; line-height: normal;&quot;&gt;1..*&lt;/span&gt;&lt;/span&gt;&lt;/div&gt;&lt;/div&gt;" style="text;html=1;nl2Br=0;points=[];labelBackgroundColor=#FFFFFF;html=1;nl2Br=0;verticalAlign=middle;align=center;spacingLeft=0.0;spacingRight=0;gliffyId=2896;" parent="92" vertex="1">
          <mxGeometry x="-0.7647058823529411" relative="1" as="geometry">
            <mxPoint x="-3" y="12" as="offset" />
          </mxGeometry>
        </mxCell>
        <mxCell id="96" style="shape=filledEdge;strokeWidth=2;strokeColor=#000000;fillColor=none;startArrow=none;startFill=0;startSize=6;endArrow=diamond;endFill=0;endSize=12;rounded=0;html=1;nl2Br=0;gliffyId=2938;edgeStyle=orthogonalEdgeStyle;" parent="2" source="13" target="12" edge="1">
          <mxGeometry width="100" height="100" relative="1" as="geometry">
            <Array as="points">
              <mxPoint x="1085" y="610" />
              <mxPoint x="1085" y="700" />
            </Array>
          </mxGeometry>
        </mxCell>
        <mxCell id="97" value="&lt;div style=&#39;width: 29.0125px;height:auto;word-break: break-word;&#39;&gt;&lt;div align=&quot;center&quot;&gt;&lt;span style=&quot;font-size:12px;font-family:Arial; line-height: normal;&quot;&gt;0..*&lt;/span&gt;&lt;/div&gt;&lt;/div&gt;" style="text;html=1;nl2Br=0;points=[];labelBackgroundColor=#FFFFFF;html=1;nl2Br=0;verticalAlign=middle;align=center;spacingLeft=0.0;spacingRight=0;gliffyId=2942;" parent="96" vertex="1">
          <mxGeometry x="-0.6666666666666667" relative="1" as="geometry">
            <mxPoint x="-21" y="-5" as="offset" />
          </mxGeometry>
        </mxCell>
        <mxCell id="98" value="&lt;div style=&#39;width: 29.0125px;height:auto;word-break: break-word;&#39;&gt;&lt;div align=&quot;center&quot;&gt;&lt;span style=&quot;font-size:12px;font-family:Arial; line-height: 0;&quot;&gt;&lt;span style=&quot; line-height: normal;&quot;&gt;0..*&lt;/span&gt;&lt;/span&gt;&lt;/div&gt;&lt;/div&gt;" style="text;html=1;nl2Br=0;points=[];labelBackgroundColor=#FFFFFF;html=1;nl2Br=0;verticalAlign=middle;align=center;spacingLeft=0.0;spacingRight=0;gliffyId=2939;" parent="96" vertex="1">
          <mxGeometry x="0.776470588235294" relative="1" as="geometry">
            <mxPoint x="-25" y="-4" as="offset" />
          </mxGeometry>
        </mxCell>
        <mxCell id="99" value="&lt;div style=&#39;width: 47.7px;height:auto;word-break: break-word;&#39;&gt;&lt;div align=&quot;center&quot;&gt;&lt;span style=&quot;font-size:12px;font-family:Arial; line-height: 0;&quot;&gt;&lt;span style=&quot; line-height: normal;&quot;&gt;groups&lt;/span&gt;&lt;/span&gt;&lt;/div&gt;&lt;/div&gt;" style="text;html=1;nl2Br=0;points=[];labelBackgroundColor=#FFFFFF;html=1;nl2Br=0;verticalAlign=middle;align=center;spacingLeft=0.0;spacingRight=0;gliffyId=2940;" parent="96" vertex="1">
          <mxGeometry x="-0.08235294117647063" relative="1" as="geometry">
            <mxPoint x="-10" as="offset" />
          </mxGeometry>
        </mxCell>
        <mxCell id="100" style="shape=filledEdge;strokeWidth=2;strokeColor=#000000;fillColor=none;startArrow=none;startFill=0;startSize=6;endArrow=diamond;endFill=0;endSize=12;rounded=0;gliffyId=3121;edgeStyle=orthogonalEdgeStyle;" parent="2" source="14" target="20" edge="1">
          <mxGeometry width="100" height="100" relative="1" as="geometry">
            <Array as="points">
              <mxPoint x="1085" y="310" />
              <mxPoint x="1085" y="230" />
            </Array>
          </mxGeometry>
        </mxCell>
        <mxCell id="101" style="shape=filledEdge;strokeWidth=2;strokeColor=#000000;fillColor=none;startArrow=none;startFill=0;startSize=6;endArrow=diamond;endFill=0;endSize=12;rounded=0;html=1;nl2Br=0;gliffyId=3134;edgeStyle=orthogonalEdgeStyle;" parent="2" source="13" target="16" edge="1">
          <mxGeometry width="100" height="100" relative="1" as="geometry">
            <Array as="points">
              <mxPoint x="1109.852783203125" y="610" />
              <mxPoint x="1109.852783203125" y="655" />
              <mxPoint x="1235" y="655" />
              <mxPoint x="1235" y="700" />
            </Array>
          </mxGeometry>
        </mxCell>
        <mxCell id="102" value="&lt;div style=&#39;width: 29.0125px;height:auto;word-break: break-word;&#39;&gt;&lt;div align=&quot;center&quot;&gt;&lt;span style=&quot;font-size:12px;font-family:Arial; line-height: 0;&quot;&gt;&lt;span style=&quot; line-height: normal;&quot;&gt;1..*&lt;/span&gt;&lt;/span&gt;&lt;/div&gt;&lt;/div&gt;" style="text;html=1;nl2Br=0;points=[];labelBackgroundColor=#FFFFFF;html=1;nl2Br=0;verticalAlign=middle;align=center;spacingLeft=0.0;spacingRight=0;gliffyId=3138;" parent="101" vertex="1">
          <mxGeometry x="-0.879152498100217" relative="1" as="geometry">
            <mxPoint x="17" y="-4" as="offset" />
          </mxGeometry>
        </mxCell>
        <mxCell id="103" value="&lt;div style=&#39;width: 29.0125px;height:auto;word-break: break-word;&#39;&gt;&lt;div align=&quot;center&quot;&gt;&lt;span style=&quot;font-size:12px;font-family:Arial; line-height: 0;&quot;&gt;&lt;span style=&quot; line-height: normal;&quot;&gt;0..*&lt;/span&gt;&lt;/span&gt;&lt;/div&gt;&lt;/div&gt;" style="text;html=1;nl2Br=0;points=[];labelBackgroundColor=#FFFFFF;html=1;nl2Br=0;verticalAlign=middle;align=center;spacingLeft=0.0;spacingRight=0;gliffyId=3136;" parent="101" vertex="1">
          <mxGeometry x="0.8963761836581325" relative="1" as="geometry">
            <mxPoint x="23" y="-3" as="offset" />
          </mxGeometry>
        </mxCell>
        <mxCell id="104" value="&lt;div style=&#39;width: 30.35px;height:auto;word-break: break-word;&#39;&gt;&lt;div align=&quot;center&quot;&gt;&lt;span style=&quot;font-size:12px;font-family:Arial; line-height: 0;&quot;&gt;&lt;span style=&quot; line-height: normal;&quot;&gt;has&lt;/span&gt;&lt;/span&gt;&lt;/div&gt;&lt;/div&gt;" style="text;html=1;nl2Br=0;points=[];labelBackgroundColor=#FFFFFF;html=1;nl2Br=0;verticalAlign=middle;align=center;spacingLeft=0.0;spacingRight=0;gliffyId=3137;" parent="101" vertex="1">
          <mxGeometry x="-0.08235294117647063" relative="1" as="geometry">
            <mxPoint as="offset" />
          </mxGeometry>
        </mxCell>
        <mxCell id="105" style="shape=filledEdge;strokeWidth=2;strokeColor=#000000;fillColor=none;startArrow=none;startFill=0;startSize=6;endArrow=diamond;endFill=0;endSize=12;rounded=0;html=1;nl2Br=0;gliffyId=3036;edgeStyle=orthogonalEdgeStyle;" parent="2" source="14" target="17" edge="1">
          <mxGeometry width="100" height="100" relative="1" as="geometry">
            <Array as="points">
              <mxPoint x="1060.147216796875" y="310" />
              <mxPoint x="1060.147216796875" y="270" />
              <mxPoint x="935" y="270" />
              <mxPoint x="935" y="230" />
            </Array>
          </mxGeometry>
        </mxCell>
        <mxCell id="106" value="&lt;div style=&#39;width: 31.025px;height:auto;word-break: break-word;&#39;&gt;&lt;div align=&quot;center&quot;&gt;&lt;span style=&quot;font-size:12px;font-family:Arial; line-height: 0;&quot;&gt;&lt;span style=&quot; line-height: normal;&quot;&gt;0..1&lt;/span&gt;&lt;/span&gt;&lt;/div&gt;&lt;/div&gt;" style="text;html=1;nl2Br=0;points=[];labelBackgroundColor=#FFFFFF;html=1;nl2Br=0;verticalAlign=middle;align=center;spacingLeft=0.0;spacingRight=0;gliffyId=3115;" parent="105" vertex="1">
          <mxGeometry x="-0.8927599232466517" relative="1" as="geometry">
            <mxPoint x="-19" as="offset" />
          </mxGeometry>
        </mxCell>
        <mxCell id="107" value="&lt;div style=&#39;width: 29.0125px;height:auto;word-break: break-word;&#39;&gt;&lt;div align=&quot;center&quot;&gt;&lt;span style=&quot;font-size:12px;font-family:Arial; line-height: 0;&quot;&gt;&lt;span style=&quot; line-height: normal;&quot;&gt;0..*&lt;/span&gt;&lt;/span&gt;&lt;/div&gt;&lt;/div&gt;" style="text;html=1;nl2Br=0;points=[];labelBackgroundColor=#FFFFFF;html=1;nl2Br=0;verticalAlign=middle;align=center;spacingLeft=0.0;spacingRight=0;gliffyId=3038;" parent="105" vertex="1">
          <mxGeometry x="0.8328304026935893" relative="1" as="geometry">
            <mxPoint x="-19" y="4" as="offset" />
          </mxGeometry>
        </mxCell>
        <mxCell id="108" value="&lt;div style=&#39;width: 98.3875px;height:auto;word-break: break-word;&#39;&gt;&lt;div align=&quot;center&quot;&gt;&lt;span style=&quot;font-size:12px;font-family:Arial; line-height: 0;&quot;&gt;&lt;span style=&quot; line-height: normal;&quot;&gt;specifies agreed&lt;/span&gt;&lt;/span&gt;&lt;/div&gt;&lt;/div&gt;" style="text;html=1;nl2Br=0;points=[];labelBackgroundColor=#FFFFFF;html=1;nl2Br=0;verticalAlign=middle;align=center;spacingLeft=0.0;spacingRight=0;gliffyId=3039;" parent="105" vertex="1">
          <mxGeometry x="-0.030513332282920858" relative="1" as="geometry">
            <mxPoint as="offset" />
          </mxGeometry>
        </mxCell>
        <mxCell id="109" style="shape=filledEdge;strokeWidth=2;strokeColor=#000000;fillColor=none;startArrow=none;startFill=0;startSize=6;endArrow=diamond;endFill=0;endSize=12;rounded=0;gliffyId=3131;edgeStyle=orthogonalEdgeStyle;" parent="2" source="14" target="21" edge="1">
          <mxGeometry width="100" height="100" relative="1" as="geometry">
            <Array as="points">
              <mxPoint x="1109.852783203125" y="310" />
              <mxPoint x="1109.852783203125" y="270" />
              <mxPoint x="1225" y="270" />
              <mxPoint x="1225" y="230" />
            </Array>
          </mxGeometry>
        </mxCell>
        <mxCell id="110" style="shape=filledEdge;strokeWidth=2;strokeColor=#000000;fillColor=none;startArrow=none;startFill=0;startSize=6;endArrow=diamond;endFill=0;endSize=12;rounded=0;html=1;nl2Br=0;gliffyId=3151;exitX=1.0;exitY=0.7071067690849304;exitPerimeter=0;entryX=1.1102230246251565E-16;entryY=0.2928932309150696;entryPerimeter=0;" parent="2" source="24" target="23" edge="1">
          <mxGeometry width="100" height="100" relative="1" as="geometry">
            <Array as="points">
              <mxPoint x="495" y="667.4263916015625" />
              <mxPoint x="665" y="717.5736083984375" />
            </Array>
          </mxGeometry>
        </mxCell>
        <mxCell id="111" value="&lt;div style=&#39;width: 29.0125px;height:auto;word-break: break-word;&#39;&gt;&lt;div align=&quot;center&quot;&gt;&lt;span style=&quot;font-size:12px;font-family:Arial; line-height: 0;&quot;&gt;&lt;span style=&quot; line-height: normal;&quot;&gt;0..*&lt;/span&gt;&lt;/span&gt;&lt;/div&gt;&lt;/div&gt;" style="text;html=1;nl2Br=0;points=[];labelBackgroundColor=#FFFFFF;html=1;nl2Br=0;verticalAlign=middle;align=center;spacingLeft=0.0;spacingRight=0;gliffyId=3161;" parent="110" vertex="1">
          <mxGeometry x="0.6926007067332594" relative="1" as="geometry">
            <mxPoint x="9" y="-11" as="offset" />
          </mxGeometry>
        </mxCell>
        <mxCell id="112" value="&lt;div style=&#39;width: 29.0125px;height:auto;word-break: break-word;&#39;&gt;&lt;div align=&quot;center&quot;&gt;&lt;span style=&quot;font-size:12px;font-family:Arial; line-height: 0;&quot;&gt;&lt;span style=&quot; line-height: normal;&quot;&gt;1..*&lt;/span&gt;&lt;/span&gt;&lt;/div&gt;&lt;/div&gt;" style="text;html=1;nl2Br=0;points=[];labelBackgroundColor=#FFFFFF;html=1;nl2Br=0;verticalAlign=middle;align=center;spacingLeft=0.0;spacingRight=0;gliffyId=3160;" parent="110" vertex="1">
          <mxGeometry x="-0.7630359010573438" relative="1" as="geometry">
            <mxPoint y="20" as="offset" />
          </mxGeometry>
        </mxCell>
        <mxCell id="113" value="&lt;div style=&#39;width: 55.7px;height:auto;word-break: break-word;&#39;&gt;&lt;div align=&quot;center&quot;&gt;&lt;span style=&quot;font-size:12px;font-family:Arial; line-height: 0;&quot;&gt;&lt;span style=&quot; line-height: normal;&quot;&gt;contains&lt;/span&gt;&lt;/span&gt;&lt;/div&gt;&lt;/div&gt;" style="text;html=1;nl2Br=0;points=[];labelBackgroundColor=#FFFFFF;html=1;nl2Br=0;verticalAlign=middle;align=center;spacingLeft=0.0;spacingRight=0;gliffyId=3152;" parent="110" vertex="1">
          <mxGeometry x="0.004276419328400394" relative="1" as="geometry">
            <mxPoint as="offset" />
          </mxGeometry>
        </mxCell>
        <mxCell id="114" style="shape=filledEdge;strokeWidth=2;strokeColor=#000000;fillColor=none;startArrow=none;startFill=0;startSize=6;endArrow=diamond;endFill=0;endSize=12;rounded=0;html=1;nl2Br=0;gliffyId=2949;edgeStyle=orthogonalEdgeStyle;" parent="2" source="31" target="10" edge="1">
          <mxGeometry width="100" height="100" relative="1" as="geometry">
            <Array as="points">
              <mxPoint x="1555" y="912.4263916015625" />
              <mxPoint x="1225" y="912.4263916015625" />
            </Array>
          </mxGeometry>
        </mxCell>
        <mxCell id="115" value="&lt;div style=&#39;width: 29.0125px;height:auto;word-break: break-word;&#39;&gt;&lt;div align=&quot;center&quot;&gt;&lt;span style=&quot;font-size:12px;font-family:Arial; line-height: 0;&quot;&gt;&lt;span style=&quot; line-height: normal;&quot;&gt;1..*&lt;/span&gt;&lt;/span&gt;&lt;/div&gt;&lt;/div&gt;" style="text;html=1;nl2Br=0;points=[];labelBackgroundColor=#FFFFFF;html=1;nl2Br=0;verticalAlign=middle;align=center;spacingLeft=0.0;spacingRight=0;gliffyId=2954;" parent="114" vertex="1">
          <mxGeometry x="-0.9030303030303031" relative="1" as="geometry">
            <mxPoint x="-5" y="14" as="offset" />
          </mxGeometry>
        </mxCell>
        <mxCell id="116" value="&lt;div style=&#39;width: 29.0125px;height:auto;word-break: break-word;&#39;&gt;&lt;div align=&quot;center&quot;&gt;&lt;span style=&quot;font-size:12px;font-family:Arial; line-height: 0;&quot;&gt;&lt;span style=&quot; line-height: normal;&quot;&gt;0..*&lt;/span&gt;&lt;/span&gt;&lt;/div&gt;&lt;/div&gt;" style="text;html=1;nl2Br=0;points=[];labelBackgroundColor=#FFFFFF;html=1;nl2Br=0;verticalAlign=middle;align=center;spacingLeft=0.0;spacingRight=0;gliffyId=2951;" parent="114" vertex="1">
          <mxGeometry x="0.7878787878787878" relative="1" as="geometry">
            <mxPoint x="-19" y="16" as="offset" />
          </mxGeometry>
        </mxCell>
        <mxCell id="117" value="&lt;div style=&#39;width: 47.7px;height:auto;word-break: break-word;&#39;&gt;&lt;div align=&quot;center&quot;&gt;&lt;span style=&quot;font-size:12px;font-family:Arial; line-height: 0;&quot;&gt;&lt;span style=&quot; line-height: normal;&quot;&gt;groups&lt;/span&gt;&lt;/span&gt;&lt;/div&gt;&lt;/div&gt;" style="text;html=1;nl2Br=0;points=[];labelBackgroundColor=#FFFFFF;html=1;nl2Br=0;verticalAlign=middle;align=center;spacingLeft=0.0;spacingRight=0;gliffyId=2952;" parent="114" vertex="1">
          <mxGeometry x="-0.08235294117647063" relative="1" as="geometry">
            <mxPoint as="offset" />
          </mxGeometry>
        </mxCell>
        <mxCell id="118" style="shape=filledEdge;strokeWidth=2;strokeColor=#000000;fillColor=none;startArrow=none;startFill=0;startSize=6;endArrow=diamond;endFill=0;endSize=12;rounded=0;html=1;nl2Br=0;gliffyId=3007;edgeStyle=orthogonalEdgeStyle;" parent="2" source="22" target="11" edge="1">
          <mxGeometry width="100" height="100" relative="1" as="geometry">
            <Array as="points">
              <mxPoint x="785" y="912.4263916015625" />
              <mxPoint x="935" y="912.4263916015625" />
            </Array>
          </mxGeometry>
        </mxCell>
        <mxCell id="119" value="&lt;div style=&#39;width: 29.0125px;height:auto;word-break: break-word;&#39;&gt;&lt;div align=&quot;center&quot;&gt;&lt;span style=&quot;font-size:12px;font-family:Arial; line-height: 0;&quot;&gt;&lt;span style=&quot; line-height: normal;&quot;&gt;1..*&lt;/span&gt;&lt;/span&gt;&lt;/div&gt;&lt;/div&gt;" style="text;html=1;nl2Br=0;points=[];labelBackgroundColor=#FFFFFF;html=1;nl2Br=0;verticalAlign=middle;align=center;spacingLeft=0.0;spacingRight=0;gliffyId=3008;" parent="118" vertex="1">
          <mxGeometry x="-0.7777777777777778" relative="1" as="geometry">
            <mxPoint y="14" as="offset" />
          </mxGeometry>
        </mxCell>
        <mxCell id="120" value="&lt;div style=&#39;width: 29.0125px;height:auto;word-break: break-word;&#39;&gt;&lt;div align=&quot;center&quot;&gt;&lt;span style=&quot;font-size:12px;font-family:Arial; line-height: 0;&quot;&gt;&lt;span style=&quot; line-height: normal;&quot;&gt;0..*&lt;/span&gt;&lt;/span&gt;&lt;/div&gt;&lt;/div&gt;" style="text;html=1;nl2Br=0;points=[];labelBackgroundColor=#FFFFFF;html=1;nl2Br=0;verticalAlign=middle;align=center;spacingLeft=0.0;spacingRight=0;gliffyId=3009;" parent="118" vertex="1">
          <mxGeometry x="0.8" relative="1" as="geometry">
            <mxPoint x="-4" y="15" as="offset" />
          </mxGeometry>
        </mxCell>
        <mxCell id="121" value="&lt;div style=&#39;width: 47.7px;height:auto;word-break: break-word;&#39;&gt;&lt;div align=&quot;center&quot;&gt;&lt;span style=&quot;font-size:12px;font-family:Arial; line-height: 0;&quot;&gt;&lt;span style=&quot; line-height: normal;&quot;&gt;groups&lt;/span&gt;&lt;/span&gt;&lt;/div&gt;&lt;/div&gt;" style="text;html=1;nl2Br=0;points=[];labelBackgroundColor=#FFFFFF;html=1;nl2Br=0;verticalAlign=middle;align=center;spacingLeft=0.0;spacingRight=0;gliffyId=3010;" parent="118" vertex="1">
          <mxGeometry x="-0.08235294117647063" relative="1" as="geometry">
            <mxPoint as="offset" />
          </mxGeometry>
        </mxCell>
        <mxCell id="122" style="shape=filledEdge;strokeWidth=2;strokeColor=#000000;fillColor=none;startArrow=none;startFill=0;startSize=6;endArrow=diamond;endFill=0;endSize=12;rounded=0;html=1;nl2Br=0;gliffyId=2919;edgeStyle=orthogonalEdgeStyle;" parent="2" source="37" target="37" edge="1">
          <mxGeometry width="100" height="100" relative="1" as="geometry">
            <Array as="points">
              <mxPoint x="2124.852783203125" y="1070" />
              <mxPoint x="2124.852783203125" y="1110" />
              <mxPoint x="2200" y="1110" />
              <mxPoint x="2200" y="1040" />
              <mxPoint x="2160" y="1040" />
            </Array>
          </mxGeometry>
        </mxCell>
        <mxCell id="123" value="&lt;div style=&#39;width: 29.0125px;height:auto;word-break: break-word;&#39;&gt;&lt;div align=&quot;center&quot;&gt;&lt;span style=&quot;font-size:12px;font-family:Arial; line-height: normal;&quot;&gt;0..*&lt;/span&gt;&lt;/div&gt;&lt;/div&gt;" style="text;html=1;nl2Br=0;points=[];labelBackgroundColor=#FFFFFF;html=1;nl2Br=0;verticalAlign=middle;align=center;spacingLeft=0.0;spacingRight=0;gliffyId=2923;" parent="122" vertex="1">
          <mxGeometry x="-0.8667538311330534" relative="1" as="geometry">
            <mxPoint x="-19" y="-4" as="offset" />
          </mxGeometry>
        </mxCell>
        <mxCell id="124" value="&lt;div style=&#39;width: 29.0125px;height:auto;word-break: break-word;&#39;&gt;&lt;div align=&quot;center&quot;&gt;&lt;span style=&quot;font-size:12px;font-family:Arial; line-height: 0;&quot;&gt;&lt;span style=&quot; line-height: normal;&quot;&gt;0..*&lt;/span&gt;&lt;/span&gt;&lt;/div&gt;&lt;/div&gt;" style="text;html=1;nl2Br=0;points=[];labelBackgroundColor=#FFFFFF;html=1;nl2Br=0;verticalAlign=middle;align=center;spacingLeft=0.0;spacingRight=0;gliffyId=2920;" parent="122" vertex="1">
          <mxGeometry x="0.776470588235294" relative="1" as="geometry">
            <mxPoint x="-6" y="18" as="offset" />
          </mxGeometry>
        </mxCell>
        <mxCell id="125" value="&lt;div style=&#39;width: 116.412px;height:auto;word-break: break-word;&#39;&gt;&lt;div align=&quot;center&quot;&gt;&lt;span style=&quot;font-size:12px;font-family:Arial; line-height: 0;&quot;&gt;&lt;span style=&quot; line-height: normal;&quot;&gt;is an aggregation of&lt;/span&gt;&lt;/span&gt;&lt;/div&gt;&lt;/div&gt;" style="text;html=1;nl2Br=0;points=[];labelBackgroundColor=#FFFFFF;html=1;nl2Br=0;verticalAlign=middle;align=center;spacingLeft=0.0;spacingRight=0;gliffyId=2921;" parent="122" vertex="1">
          <mxGeometry x="-0.08235294117647063" relative="1" as="geometry">
            <mxPoint x="14" y="-16" as="offset" />
          </mxGeometry>
        </mxCell>
        <mxCell id="126" style="shape=filledEdge;strokeWidth=2;strokeColor=#000000;fillColor=none;startArrow=none;startFill=0;startSize=6;endArrow=open;endFill=0;endSize=6;rounded=0;html=1;nl2Br=0;gliffyId=2851;edgeStyle=orthogonalEdgeStyle;" parent="2" source="31" target="7" edge="1">
          <mxGeometry width="2" height="102" relative="1" as="geometry">
            <Array as="points">
              <mxPoint x="1615" y="870" />
              <mxPoint x="1615" y="833.3333129882812" />
              <mxPoint x="1615" y="796.6666870117188" />
              <mxPoint x="1615" y="760" />
            </Array>
          </mxGeometry>
        </mxCell>
        <mxCell id="127" value="&lt;div style=&#39;width: 17.675px;height:auto;word-break: break-word;&#39;&gt;&lt;div align=&quot;center&quot;&gt;&lt;span style=&quot;font-size:12px;font-family:Arial; line-height: 0;&quot;&gt;&lt;span style=&quot; line-height: normal;&quot;&gt;1&lt;/span&gt;&lt;/span&gt;&lt;/div&gt;&lt;/div&gt;" style="text;html=1;nl2Br=0;points=[];labelBackgroundColor=#FFFFFF;html=1;nl2Br=0;verticalAlign=middle;align=center;spacingLeft=0.0;spacingRight=0;gliffyId=2856;" parent="126" vertex="1">
          <mxGeometry x="0.7818181818181817" relative="1" as="geometry">
            <mxPoint x="-20" y="-3" as="offset" />
          </mxGeometry>
        </mxCell>
        <mxCell id="128" value="&lt;div style=&#39;width: 29.0125px;height:auto;word-break: break-word;&#39;&gt;&lt;div align=&quot;center&quot;&gt;&lt;span style=&quot;font-size:12px;font-family:Arial; line-height: 0;&quot;&gt;&lt;span style=&quot; line-height: normal;&quot;&gt;0..*&lt;/span&gt;&lt;/span&gt;&lt;/div&gt;&lt;/div&gt;" style="text;html=1;nl2Br=0;points=[];labelBackgroundColor=#FFFFFF;html=1;nl2Br=0;verticalAlign=middle;align=center;spacingLeft=0.0;spacingRight=0;gliffyId=2855;" parent="126" vertex="1">
          <mxGeometry x="-0.7818181818181819" relative="1" as="geometry">
            <mxPoint x="-19" y="1" as="offset" />
          </mxGeometry>
        </mxCell>
        <mxCell id="129" value="&lt;div style=&#39;width: 92.375px;height:auto;word-break: break-word;&#39;&gt;&lt;div align=&quot;center&quot;&gt;&lt;span style=&quot;font-size:12px;font-family:Arial; line-height: 0;&quot;&gt;&lt;span style=&quot; line-height: normal;&quot;&gt;is structured by&lt;/span&gt;&lt;/span&gt;&lt;/div&gt;&lt;/div&gt;" style="text;html=1;nl2Br=0;points=[];labelBackgroundColor=#FFFFFF;html=1;nl2Br=0;verticalAlign=middle;align=center;spacingLeft=0.0;spacingRight=0;gliffyId=2854;" parent="126" vertex="1">
          <mxGeometry x="-0.10909090909090913" relative="1" as="geometry">
            <mxPoint x="-22" y="-3" as="offset" />
          </mxGeometry>
        </mxCell>
        <mxCell id="130" style="shape=filledEdge;strokeWidth=2;strokeColor=#000000;fillColor=none;startArrow=none;startFill=0;startSize=6;endArrow=open;endFill=0;endSize=6;rounded=0;html=1;nl2Br=0;gliffyId=3013;edgeStyle=orthogonalEdgeStyle;" parent="2" source="22" target="23" edge="1">
          <mxGeometry width="2" height="102" relative="1" as="geometry">
            <Array as="points">
              <mxPoint x="725" y="870" />
              <mxPoint x="725" y="833.3333129882812" />
              <mxPoint x="725" y="796.6666870117188" />
              <mxPoint x="725" y="760" />
            </Array>
          </mxGeometry>
        </mxCell>
        <mxCell id="131" value="&lt;div style=&#39;width: 17.675px;height:auto;word-break: break-word;&#39;&gt;&lt;div align=&quot;center&quot;&gt;&lt;span style=&quot;font-size:12px;font-family:Arial; line-height: 0;&quot;&gt;&lt;span style=&quot; line-height: normal;&quot;&gt;1&lt;/span&gt;&lt;/span&gt;&lt;/div&gt;&lt;/div&gt;" style="text;html=1;nl2Br=0;points=[];labelBackgroundColor=#FFFFFF;html=1;nl2Br=0;verticalAlign=middle;align=center;spacingLeft=0.0;spacingRight=0;gliffyId=3014;" parent="130" vertex="1">
          <mxGeometry x="0.7818181818181817" relative="1" as="geometry">
            <mxPoint x="16" as="offset" />
          </mxGeometry>
        </mxCell>
        <mxCell id="132" value="&lt;div style=&#39;width: 29.0125px;height:auto;word-break: break-word;&#39;&gt;&lt;div align=&quot;center&quot;&gt;&lt;span style=&quot;font-size:12px;font-family:Arial; line-height: 0;&quot;&gt;&lt;span style=&quot; line-height: normal;&quot;&gt;0..*&lt;/span&gt;&lt;/span&gt;&lt;/div&gt;&lt;/div&gt;" style="text;html=1;nl2Br=0;points=[];labelBackgroundColor=#FFFFFF;html=1;nl2Br=0;verticalAlign=middle;align=center;spacingLeft=0.0;spacingRight=0;gliffyId=3015;" parent="130" vertex="1">
          <mxGeometry x="-0.7818181818181819" relative="1" as="geometry">
            <mxPoint x="16" as="offset" />
          </mxGeometry>
        </mxCell>
        <mxCell id="133" value="&lt;div style=&#39;width: 92.375px;height:auto;word-break: break-word;&#39;&gt;&lt;div align=&quot;center&quot;&gt;&lt;span style=&quot;font-size:12px;font-family:Arial; line-height: 0;&quot;&gt;&lt;span style=&quot; line-height: normal;&quot;&gt;is structured by&lt;/span&gt;&lt;/span&gt;&lt;/div&gt;&lt;/div&gt;" style="text;html=1;nl2Br=0;points=[];labelBackgroundColor=#FFFFFF;html=1;nl2Br=0;verticalAlign=middle;align=center;spacingLeft=0.0;spacingRight=0;gliffyId=3016;" parent="130" vertex="1">
          <mxGeometry x="-0.12727272727272732" relative="1" as="geometry">
            <mxPoint as="offset" />
          </mxGeometry>
        </mxCell>
        <mxCell id="134" style="shape=filledEdge;strokeWidth=2;strokeColor=#000000;fillColor=none;startArrow=none;startFill=0;startSize=6;endArrow=open;endFill=0;endSize=6;rounded=0;html=1;nl2Br=0;gliffyId=3021;edgeStyle=orthogonalEdgeStyle;" parent="2" source="13" target="14" edge="1">
          <mxGeometry width="2" height="102" relative="1" as="geometry">
            <Array as="points">
              <mxPoint x="1085" y="550" />
              <mxPoint x="1085" y="490" />
              <mxPoint x="1085" y="430" />
              <mxPoint x="1085" y="370" />
            </Array>
          </mxGeometry>
        </mxCell>
        <mxCell id="135" value="&lt;div style=&#39;width: 17.675px;height:auto;word-break: break-word;&#39;&gt;&lt;div align=&quot;center&quot;&gt;&lt;span style=&quot;font-size:12px;font-family:Arial; line-height: 0;&quot;&gt;&lt;span style=&quot; line-height: normal;&quot;&gt;1&lt;/span&gt;&lt;/span&gt;&lt;/div&gt;&lt;/div&gt;" style="text;html=1;nl2Br=0;points=[];labelBackgroundColor=#FFFFFF;html=1;nl2Br=0;verticalAlign=middle;align=center;spacingLeft=0.0;spacingRight=0;gliffyId=3022;" parent="134" vertex="1">
          <mxGeometry x="0.7818181818181817" relative="1" as="geometry">
            <mxPoint x="-18" y="-10" as="offset" />
          </mxGeometry>
        </mxCell>
        <mxCell id="136" value="&lt;div style=&#39;width: 29.0125px;height:auto;word-break: break-word;&#39;&gt;&lt;div align=&quot;center&quot;&gt;&lt;span style=&quot;font-size:12px;font-family:Arial; line-height: 0;&quot;&gt;&lt;span style=&quot; line-height: normal;&quot;&gt;0..*&lt;/span&gt;&lt;/span&gt;&lt;/div&gt;&lt;/div&gt;" style="text;html=1;nl2Br=0;points=[];labelBackgroundColor=#FFFFFF;html=1;nl2Br=0;verticalAlign=middle;align=center;spacingLeft=0.0;spacingRight=0;gliffyId=3023;" parent="134" vertex="1">
          <mxGeometry x="-0.7818181818181819" relative="1" as="geometry">
            <mxPoint x="-19" y="8" as="offset" />
          </mxGeometry>
        </mxCell>
        <mxCell id="137" value="&lt;div style=&#39;width: 92.375px;height:auto;word-break: break-word;&#39;&gt;&lt;div align=&quot;center&quot;&gt;&lt;span style=&quot;font-size:12px;font-family:Arial; line-height: 0;&quot;&gt;&lt;span style=&quot; line-height: normal;&quot;&gt;is structured by&lt;/span&gt;&lt;/span&gt;&lt;/div&gt;&lt;/div&gt;" style="text;html=1;nl2Br=0;points=[];labelBackgroundColor=#FFFFFF;html=1;nl2Br=0;verticalAlign=middle;align=center;spacingLeft=0.0;spacingRight=0;gliffyId=3024;" parent="134" vertex="1">
          <mxGeometry x="0.5555555555555556" relative="1" as="geometry">
            <mxPoint as="offset" />
          </mxGeometry>
        </mxCell>
        <mxCell id="138" style="shape=filledEdge;strokeWidth=2;strokeColor=#000000;fillColor=none;startArrow=open;startFill=0;startSize=6;endArrow=none;endFill=0;endSize=6;rounded=0;html=1;nl2Br=0;gliffyId=3026;edgeStyle=orthogonalEdgeStyle;" parent="2" source="13" target="19" edge="1">
          <mxGeometry width="2" height="102" relative="1" as="geometry">
            <Array as="points">
              <mxPoint x="1137" y="550" />
              <mxPoint x="1137" y="420" />
              <mxPoint x="1210" y="420" />
            </Array>
          </mxGeometry>
        </mxCell>
        <mxCell id="139" value="&lt;div style=&#39;width: 29.0125px;height:auto;word-break: break-word;&#39;&gt;&lt;div align=&quot;center&quot;&gt;&lt;span style=&quot;font-size:12px;font-family:Arial; line-height: 0;&quot;&gt;&lt;span style=&quot; line-height: normal;&quot;&gt;0..*&lt;/span&gt;&lt;/span&gt;&lt;/div&gt;&lt;/div&gt;" style="text;html=1;nl2Br=0;points=[];labelBackgroundColor=#FFFFFF;html=1;nl2Br=0;verticalAlign=middle;align=center;spacingLeft=0.0;spacingRight=0;gliffyId=3027;" parent="138" vertex="1">
          <mxGeometry x="0.8522167487684729" relative="1" as="geometry">
            <mxPoint x="-6" y="-13" as="offset" />
          </mxGeometry>
        </mxCell>
        <mxCell id="140" value="&lt;div style=&#39;width: 29.0125px;height:auto;word-break: break-word;&#39;&gt;&lt;div align=&quot;center&quot;&gt;&lt;span style=&quot;font-size:12px;font-family:Arial; line-height: 0;&quot;&gt;&lt;span style=&quot; line-height: normal;&quot;&gt;1..*&lt;/span&gt;&lt;/span&gt;&lt;/div&gt;&lt;/div&gt;" style="text;html=1;nl2Br=0;points=[];labelBackgroundColor=#FFFFFF;html=1;nl2Br=0;verticalAlign=middle;align=center;spacingLeft=0.0;spacingRight=0;gliffyId=3028;" parent="138" vertex="1">
          <mxGeometry x="-0.7731534524021278" relative="1" as="geometry">
            <mxPoint x="-22" y="9" as="offset" />
          </mxGeometry>
        </mxCell>
        <mxCell id="141" value="&lt;div style=&#39;width: 30.35px;height:auto;word-break: break-word;&#39;&gt;&lt;div align=&quot;center&quot;&gt;&lt;span style=&quot;font-size:12px;font-family:Arial; line-height: 0;&quot;&gt;&lt;span style=&quot; line-height: normal;&quot;&gt;has&lt;/span&gt;&lt;/span&gt;&lt;/div&gt;&lt;/div&gt;" style="text;html=1;nl2Br=0;points=[];labelBackgroundColor=#FFFFFF;html=1;nl2Br=0;verticalAlign=middle;align=center;spacingLeft=0.0;spacingRight=0;gliffyId=3029;" parent="138" vertex="1">
          <mxGeometry x="-0.12727272727272732" relative="1" as="geometry">
            <mxPoint y="14" as="offset" />
          </mxGeometry>
        </mxCell>
        <mxCell id="142" style="shape=filledEdge;strokeWidth=2;strokeColor=#000000;fillColor=none;startArrow=none;startFill=0;startSize=6;endArrow=open;endFill=0;endSize=6;rounded=0;html=1;nl2Br=0;gliffyId=3139;edgeStyle=orthogonalEdgeStyle;" parent="2" source="15" target="13" edge="1">
          <mxGeometry width="2" height="102" relative="1" as="geometry">
            <Array as="points">
              <mxPoint x="940.147216796875" y="450" />
              <mxPoint x="940.147216796875" y="580" />
              <mxPoint x="1025" y="580" />
            </Array>
          </mxGeometry>
        </mxCell>
        <mxCell id="143" value="&lt;div style=&#39;width: 29.0125px;height:auto;word-break: break-word;&#39;&gt;&lt;div align=&quot;center&quot;&gt;&lt;span style=&quot;font-size:12px;font-family:Arial;color:rgb(0, 0, 0); line-height: 0;&quot;&gt;&lt;span style=&quot; line-height: normal;&quot;&gt;0..*&lt;/span&gt;&lt;/span&gt;&lt;/div&gt;&lt;/div&gt;" style="text;html=1;nl2Br=0;points=[];labelBackgroundColor=#FFFFFF;html=1;nl2Br=0;verticalAlign=middle;align=center;spacingLeft=0.0;spacingRight=0;gliffyId=3140;" parent="142" vertex="1">
          <mxGeometry x="0.5359352025786308" relative="1" as="geometry">
            <mxPoint y="-3" as="offset" />
          </mxGeometry>
        </mxCell>
        <mxCell id="144" value="&lt;div style=&#39;width: 29.0125px;height:auto;word-break: break-word;&#39;&gt;&lt;div align=&quot;center&quot;&gt;&lt;span style=&quot;font-size:12px;font-family:Arial; line-height: 0;&quot;&gt;&lt;span style=&quot; line-height: normal;&quot;&gt;0..*&lt;/span&gt;&lt;/span&gt;&lt;/div&gt;&lt;/div&gt;" style="text;html=1;nl2Br=0;points=[];labelBackgroundColor=#FFFFFF;html=1;nl2Br=0;verticalAlign=middle;align=center;spacingLeft=0.0;spacingRight=0;gliffyId=3141;" parent="142" vertex="1">
          <mxGeometry x="-0.8603695270383063" relative="1" as="geometry">
            <mxPoint x="-18" y="-4" as="offset" />
          </mxGeometry>
        </mxCell>
        <mxCell id="145" value="&lt;div style=&#39;width: 65.7px;height:auto;word-break: break-word;&#39;&gt;&lt;div align=&quot;center&quot;&gt;&lt;span style=&quot;font-size:12px;font-family:Arial; line-height: 0;&quot;&gt;&lt;span style=&quot; line-height: normal;&quot;&gt;consumes&lt;/span&gt;&lt;/span&gt;&lt;/div&gt;&lt;/div&gt;" style="text;html=1;nl2Br=0;points=[];labelBackgroundColor=#FFFFFF;html=1;nl2Br=0;verticalAlign=middle;align=center;spacingLeft=0.0;spacingRight=0;gliffyId=3142;" parent="142" vertex="1">
          <mxGeometry x="-0.12727272727272732" relative="1" as="geometry">
            <mxPoint y="-15" as="offset" />
          </mxGeometry>
        </mxCell>
        <mxCell id="146" style="shape=filledEdge;strokeWidth=2;strokeColor=#000000;fillColor=none;startArrow=none;startFill=0;startSize=6;endArrow=open;endFill=0;endSize=6;rounded=0;html=1;nl2Br=0;gliffyId=3143;edgeStyle=orthogonalEdgeStyle;" parent="2" source="15" target="13" edge="1">
          <mxGeometry width="2" height="102" relative="1" as="geometry">
            <Array as="points">
              <mxPoint x="989.852783203125" y="450" />
              <mxPoint x="989.852783203125" y="567.5736083984375" />
              <mxPoint x="1025" y="567.5736083984375" />
            </Array>
          </mxGeometry>
        </mxCell>
        <mxCell id="147" value="&lt;div style=&#39;width: 29.0125px;height:auto;word-break: break-word;&#39;&gt;&lt;div align=&quot;center&quot;&gt;&lt;span style=&quot;font-size:12px;font-family:Arial;color:rgb(0, 0, 0); line-height: 0;&quot;&gt;&lt;span style=&quot; line-height: normal;&quot;&gt;0..*&lt;/span&gt;&lt;/span&gt;&lt;/div&gt;&lt;/div&gt;" style="text;html=1;nl2Br=0;points=[];labelBackgroundColor=#FFFFFF;html=1;nl2Br=0;verticalAlign=middle;align=center;spacingLeft=0.0;spacingRight=0;gliffyId=3144;" parent="146" vertex="1">
          <mxGeometry x="0.8203154876298206" relative="1" as="geometry">
            <mxPoint x="-5" y="-15" as="offset" />
          </mxGeometry>
        </mxCell>
        <mxCell id="148" value="&lt;div style=&#39;width: 29.0125px;height:auto;word-break: break-word;&#39;&gt;&lt;div align=&quot;center&quot;&gt;&lt;span style=&quot;font-size:12px;font-family:Arial; line-height: 0;&quot;&gt;&lt;span style=&quot; line-height: normal;&quot;&gt;0..*&lt;/span&gt;&lt;/span&gt;&lt;/div&gt;&lt;/div&gt;" style="text;html=1;nl2Br=0;points=[];labelBackgroundColor=#FFFFFF;html=1;nl2Br=0;verticalAlign=middle;align=center;spacingLeft=0.0;spacingRight=0;gliffyId=3145;" parent="146" vertex="1">
          <mxGeometry x="-0.8297546666245492" relative="1" as="geometry">
            <mxPoint x="16" y="-3" as="offset" />
          </mxGeometry>
        </mxCell>
        <mxCell id="149" value="&lt;div style=&#39;width: 60.375px;height:auto;word-break: break-word;&#39;&gt;&lt;div align=&quot;center&quot;&gt;&lt;span style=&quot;font-size:12px;font-family:Arial; line-height: 0;&quot;&gt;&lt;span style=&quot; line-height: normal;&quot;&gt;produces&lt;/span&gt;&lt;/span&gt;&lt;/div&gt;&lt;/div&gt;" style="text;html=1;nl2Br=0;points=[];labelBackgroundColor=#FFFFFF;html=1;nl2Br=0;verticalAlign=middle;align=center;spacingLeft=0.0;spacingRight=0;gliffyId=3146;" parent="146" vertex="1">
          <mxGeometry x="-0.12727272727272732" relative="1" as="geometry">
            <mxPoint y="-18" as="offset" />
          </mxGeometry>
        </mxCell>
        <mxCell id="150" style="shape=filledEdge;strokeWidth=2;strokeColor=#000000;fillColor=none;startArrow=open;startFill=0;startSize=6;endArrow=none;endFill=0;endSize=6;rounded=0;html=1;nl2Br=0;gliffyId=3147;edgeStyle=orthogonalEdgeStyle;" parent="2" source="13" target="18" edge="1">
          <mxGeometry width="2" height="102" relative="1" as="geometry">
            <Array as="points">
              <mxPoint x="1145" y="567.5736083984375" />
              <mxPoint x="1270" y="567.5736083984375" />
              <mxPoint x="1270" y="530" />
            </Array>
          </mxGeometry>
        </mxCell>
        <mxCell id="151" value="&lt;div style=&#39;width: 29.0125px;height:auto;word-break: break-word;&#39;&gt;&lt;div align=&quot;center&quot;&gt;&lt;span style=&quot;font-size:12px;font-family:Arial;color:rgb(0, 0, 0); line-height: 0;&quot;&gt;&lt;span style=&quot; line-height: normal;&quot;&gt;0..*&lt;/span&gt;&lt;/span&gt;&lt;/div&gt;&lt;/div&gt;" style="text;html=1;nl2Br=0;points=[];labelBackgroundColor=#FFFFFF;html=1;nl2Br=0;verticalAlign=middle;align=center;spacingLeft=0.0;spacingRight=0;gliffyId=3148;" parent="150" vertex="1">
          <mxGeometry x="0.8201365995981207" relative="1" as="geometry">
            <mxPoint x="16" y="-5" as="offset" />
          </mxGeometry>
        </mxCell>
        <mxCell id="152" value="&lt;div style=&#39;width: 29.0125px;height:auto;word-break: break-word;&#39;&gt;&lt;div align=&quot;center&quot;&gt;&lt;span style=&quot;font-size:12px;font-family:Arial; line-height: 0;&quot;&gt;&lt;span style=&quot; line-height: normal;&quot;&gt;0..*&lt;/span&gt;&lt;/span&gt;&lt;/div&gt;&lt;/div&gt;" style="text;html=1;nl2Br=0;points=[];labelBackgroundColor=#FFFFFF;html=1;nl2Br=0;verticalAlign=middle;align=center;spacingLeft=0.0;spacingRight=0;gliffyId=3149;" parent="150" vertex="1">
          <mxGeometry x="-0.5325194052899774" relative="1" as="geometry">
            <mxPoint x="-14" y="-11" as="offset" />
          </mxGeometry>
        </mxCell>
        <mxCell id="153" value="&lt;div style=&#39;width: 57.0375px;height:auto;word-break: break-word;&#39;&gt;&lt;div align=&quot;center&quot;&gt;&lt;span style=&quot;font-size:12px;font-family:Arial; line-height: 0;&quot;&gt;&lt;span style=&quot; line-height: normal;&quot;&gt;presents&lt;/span&gt;&lt;/span&gt;&lt;/div&gt;&lt;/div&gt;" style="text;html=1;nl2Br=0;points=[];labelBackgroundColor=#FFFFFF;html=1;nl2Br=0;verticalAlign=middle;align=center;spacingLeft=0.0;spacingRight=0;gliffyId=3150;" parent="150" vertex="1">
          <mxGeometry x="0.39487103894435416" relative="1" as="geometry">
            <mxPoint x="-34" y="-2" as="offset" />
          </mxGeometry>
        </mxCell>
        <mxCell id="154" style="shape=filledEdge;strokeWidth=2;strokeColor=#000000;fillColor=none;startArrow=none;startFill=0;startSize=6;endArrow=open;endFill=0;endSize=6;rounded=0;html=1;nl2Br=0;gliffyId=2861;edgeStyle=orthogonalEdgeStyle;" parent="2" source="215" target="29" edge="1">
          <mxGeometry width="2" height="102" relative="1" as="geometry">
            <Array as="points">
              <mxPoint x="1730" y="1040" />
              <mxPoint x="1955" y="1040" />
              <mxPoint x="1955" y="870" />
            </Array>
          </mxGeometry>
        </mxCell>
        <mxCell id="155" value="&lt;div style=&#39;width: 27.6875px;height:auto;word-break: break-word;&#39;&gt;&lt;div align=&quot;center&quot;&gt;&lt;span style=&quot;font-size:12px;font-family:Arial; line-height: 0;&quot;&gt;&lt;span style=&quot; line-height: normal;&quot;&gt;0,1&lt;/span&gt;&lt;/span&gt;&lt;/div&gt;&lt;/div&gt;" style="text;html=1;nl2Br=0;points=[];labelBackgroundColor=#FFFFFF;html=1;nl2Br=0;verticalAlign=middle;align=center;spacingLeft=0.0;spacingRight=0;gliffyId=2862;" parent="154" vertex="1">
          <mxGeometry x="0.926530612244898" relative="1" as="geometry">
            <mxPoint x="-22" y="-4" as="offset" />
          </mxGeometry>
        </mxCell>
        <mxCell id="156" value="&lt;div style=&#39;width: 29.0125px;height:auto;word-break: break-word;&#39;&gt;&lt;div align=&quot;center&quot;&gt;&lt;span style=&quot;font-size:12px;font-family:Arial; line-height: 0;&quot;&gt;&lt;span style=&quot; line-height: normal;&quot;&gt;0..*&lt;/span&gt;&lt;/span&gt;&lt;/div&gt;&lt;/div&gt;" style="text;html=1;nl2Br=0;points=[];labelBackgroundColor=#FFFFFF;html=1;nl2Br=0;verticalAlign=middle;align=center;spacingLeft=0.0;spacingRight=0;gliffyId=2863;" parent="154" vertex="1">
          <mxGeometry x="-0.9102040816326531" relative="1" as="geometry">
            <mxPoint x="-2" y="-11" as="offset" />
          </mxGeometry>
        </mxCell>
        <mxCell id="157" value="&lt;div style=&#39;width: 92.375px;height:auto;word-break: break-word;&#39;&gt;&lt;div align=&quot;center&quot;&gt;&lt;span style=&quot;font-size:12px;font-family:Arial; line-height: 0;&quot;&gt;&lt;span style=&quot; line-height: normal;&quot;&gt;is structured by&lt;/span&gt;&lt;/span&gt;&lt;/div&gt;&lt;/div&gt;" style="text;html=1;nl2Br=0;points=[];labelBackgroundColor=#FFFFFF;html=1;nl2Br=0;verticalAlign=middle;align=center;spacingLeft=0.0;spacingRight=0;gliffyId=2864;" parent="154" vertex="1">
          <mxGeometry x="-0.3466666666666667" relative="1" as="geometry">
            <mxPoint as="offset" />
          </mxGeometry>
        </mxCell>
        <mxCell id="158" style="shape=filledEdge;strokeWidth=2;strokeColor=#000000;fillColor=none;startArrow=none;startFill=0;startSize=6;endArrow=open;endFill=0;endSize=6;rounded=0;html=1;nl2Br=0;gliffyId=2873;edgeStyle=orthogonalEdgeStyle;entryX=1;entryY=0.75;entryDx=0;entryDy=0;exitX=0;exitY=0.75;exitDx=0;exitDy=0;" parent="2" source="30" target="29" edge="1">
          <mxGeometry width="2" height="102" relative="1" as="geometry" />
        </mxCell>
        <mxCell id="159" value="&lt;div style=&#39;width: 17.675px;height:auto;word-break: break-word;&#39;&gt;&lt;div align=&quot;center&quot;&gt;&lt;span style=&quot;font-size:12px;font-family:Arial; line-height: 0;&quot;&gt;&lt;span style=&quot; line-height: normal;&quot;&gt;1&lt;/span&gt;&lt;/span&gt;&lt;/div&gt;&lt;/div&gt;" style="text;html=1;nl2Br=0;points=[];labelBackgroundColor=#FFFFFF;html=1;nl2Br=0;verticalAlign=middle;align=center;spacingLeft=0.0;spacingRight=0;gliffyId=2874;" parent="158" vertex="1">
          <mxGeometry x="0.8" relative="1" as="geometry">
            <mxPoint x="4" y="-41" as="offset" />
          </mxGeometry>
        </mxCell>
        <mxCell id="160" value="&lt;div style=&#39;width: 29.0125px;height:auto;word-break: break-word;&#39;&gt;&lt;div align=&quot;center&quot;&gt;&lt;span style=&quot;font-size:12px;font-family:Arial; line-height: 0;&quot;&gt;&lt;span style=&quot; line-height: normal;&quot;&gt;0..*&lt;/span&gt;&lt;/span&gt;&lt;/div&gt;&lt;/div&gt;" style="text;html=1;nl2Br=0;points=[];labelBackgroundColor=#FFFFFF;html=1;nl2Br=0;verticalAlign=middle;align=center;spacingLeft=0.0;spacingRight=0;gliffyId=2875;" parent="158" vertex="1">
          <mxGeometry x="-0.7666666666666666" relative="1" as="geometry">
            <mxPoint x="1" y="-46" as="offset" />
          </mxGeometry>
        </mxCell>
        <mxCell id="161" value="&lt;div style=&#39;width: 99.7125px;height:auto;word-break: break-word;&#39;&gt;&lt;div align=&quot;center&quot;&gt;&lt;span style=&quot;font-size:12px;font-family:Arial; line-height: 0;&quot;&gt;&lt;span style=&quot; line-height: normal;&quot;&gt;relates to source&lt;/span&gt;&lt;/span&gt;&lt;/div&gt;&lt;/div&gt;" style="text;html=1;nl2Br=0;points=[];labelBackgroundColor=#FFFFFF;html=1;nl2Br=0;verticalAlign=middle;align=center;spacingLeft=0.0;spacingRight=0;gliffyId=2876;" parent="158" vertex="1">
          <mxGeometry x="-0.06666666666666665" relative="1" as="geometry">
            <mxPoint x="-4" as="offset" />
          </mxGeometry>
        </mxCell>
        <mxCell id="162" style="shape=filledEdge;strokeWidth=2;strokeColor=#000000;fillColor=none;startArrow=none;startFill=0;startSize=6;endArrow=open;endFill=0;endSize=6;rounded=0;html=1;nl2Br=0;gliffyId=2877;edgeStyle=orthogonalEdgeStyle;entryX=1;entryY=0.25;entryDx=0;entryDy=0;exitX=0;exitY=0.25;exitDx=0;exitDy=0;" parent="2" source="30" target="29" edge="1">
          <mxGeometry width="2" height="102" relative="1" as="geometry">
            <Array as="points" />
          </mxGeometry>
        </mxCell>
        <mxCell id="163" value="&lt;div style=&#39;width: 17.675px;height:auto;word-break: break-word;&#39;&gt;&lt;div align=&quot;center&quot;&gt;&lt;span style=&quot;font-size:12px;font-family:Arial; line-height: 0;&quot;&gt;&lt;span style=&quot; line-height: normal;&quot;&gt;1&lt;/span&gt;&lt;/span&gt;&lt;/div&gt;&lt;/div&gt;" style="text;html=1;nl2Br=0;points=[];labelBackgroundColor=#FFFFFF;html=1;nl2Br=0;verticalAlign=middle;align=center;spacingLeft=0.0;spacingRight=0;gliffyId=2878;" parent="162" vertex="1">
          <mxGeometry x="0.7555555555555555" relative="1" as="geometry">
            <mxPoint y="38" as="offset" />
          </mxGeometry>
        </mxCell>
        <mxCell id="164" value="&lt;div style=&#39;width: 29.0125px;height:auto;word-break: break-word;&#39;&gt;&lt;div align=&quot;center&quot;&gt;&lt;span style=&quot;font-size:12px;font-family:Arial; line-height: 0;&quot;&gt;&lt;span style=&quot; line-height: normal;&quot;&gt;0..*&lt;/span&gt;&lt;/span&gt;&lt;/div&gt;&lt;/div&gt;" style="text;html=1;nl2Br=0;points=[];labelBackgroundColor=#FFFFFF;html=1;nl2Br=0;verticalAlign=middle;align=center;spacingLeft=0.0;spacingRight=0;gliffyId=2879;" parent="162" vertex="1">
          <mxGeometry x="-0.8111111111111111" relative="1" as="geometry">
            <mxPoint x="-4" y="46" as="offset" />
          </mxGeometry>
        </mxCell>
        <mxCell id="165" value="&lt;div style=&quot;width: 91.05px;height:auto;word-break: break-word;&quot;&gt;&lt;div align=&quot;center&quot;&gt;&lt;span style=&quot;font-size:12px;font-family:Arial; line-height: 0;&quot;&gt;&lt;span style=&quot;line-height: normal;&quot;&gt;relates to target&lt;/span&gt;&lt;/span&gt;&lt;/div&gt;&lt;/div&gt;" style="text;html=1;nl2Br=0;points=[];labelBackgroundColor=#FFFFFF;html=1;nl2Br=0;verticalAlign=middle;align=center;spacingLeft=0.0;spacingRight=0;gliffyId=2880;" parent="162" vertex="1">
          <mxGeometry x="-0.06666666666666665" relative="1" as="geometry">
            <mxPoint x="-4" as="offset" />
          </mxGeometry>
        </mxCell>
        <mxCell id="166" style="shape=filledEdge;strokeWidth=2;strokeColor=#000000;fillColor=none;startArrow=none;startFill=0;startSize=6;endArrow=open;endFill=0;endSize=6;rounded=0;html=1;nl2Br=0;gliffyId=2901;exitX=1.0;exitY=0.2928932309150696;exitPerimeter=0;entryX=0.0;entryY=0.5;entryPerimeter=0;" parent="2" source="32" target="35" edge="1">
          <mxGeometry width="2" height="102" relative="1" as="geometry">
            <Array as="points">
              <mxPoint x="1700" y="1195.5736083984375" />
              <mxPoint x="1820" y="1148" />
            </Array>
          </mxGeometry>
        </mxCell>
        <mxCell id="167" value="&lt;div style=&#39;width: 27.6875px;height:auto;word-break: break-word;&#39;&gt;&lt;div align=&quot;center&quot;&gt;&lt;span style=&quot;font-size:12px;font-family:Arial; line-height: 0;&quot;&gt;&lt;span style=&quot; line-height: normal;&quot;&gt;0,1&lt;/span&gt;&lt;/span&gt;&lt;/div&gt;&lt;/div&gt;" style="text;html=1;nl2Br=0;points=[];labelBackgroundColor=#FFFFFF;html=1;nl2Br=0;verticalAlign=middle;align=center;spacingLeft=0.0;spacingRight=0;gliffyId=2902;" parent="166" vertex="1">
          <mxGeometry x="0.7719193998870046" relative="1" as="geometry">
            <mxPoint x="-4" y="-18" as="offset" />
          </mxGeometry>
        </mxCell>
        <mxCell id="168" value="0..1" style="text;html=1;nl2Br=0;points=[];labelBackgroundColor=#FFFFFF;html=1;nl2Br=0;verticalAlign=middle;align=center;spacingLeft=0.0;spacingRight=0;gliffyId=2903;" parent="166" vertex="1">
          <mxGeometry x="-0.7818181818181819" relative="1" as="geometry">
            <mxPoint x="17" y="3" as="offset" />
          </mxGeometry>
        </mxCell>
        <mxCell id="169" value="&lt;div style=&#39;width: 101.725px;height:auto;word-break: break-word;&#39;&gt;&lt;div align=&quot;center&quot;&gt;&lt;span style=&quot;font-size:12px;font-family:Arial; line-height: 0;&quot;&gt;&lt;span style=&quot; line-height: normal;&quot;&gt;is observation of &lt;/span&gt;&lt;/span&gt;&lt;/div&gt;&lt;/div&gt;" style="text;html=1;nl2Br=0;points=[];labelBackgroundColor=#FFFFFF;html=1;nl2Br=0;verticalAlign=middle;align=center;spacingLeft=0.0;spacingRight=0;gliffyId=2904;" parent="166" vertex="1">
          <mxGeometry x="0.13619259229395708" relative="1" as="geometry">
            <mxPoint x="-3" as="offset" />
          </mxGeometry>
        </mxCell>
        <mxCell id="170" style="shape=filledEdge;strokeWidth=2;strokeColor=#000000;fillColor=none;startArrow=none;startFill=0;startSize=6;endArrow=open;endFill=0;endSize=6;rounded=0;html=1;nl2Br=0;gliffyId=2905;exitX=1.0;exitY=0.7071067690849304;exitPerimeter=0;entryX=0.0;entryY=0.5;entryPerimeter=0;" parent="2" source="32" target="36" edge="1">
          <mxGeometry width="2" height="102" relative="1" as="geometry">
            <Array as="points">
              <mxPoint x="1700" y="1220.4263916015625" />
              <mxPoint x="1820" y="1268" />
            </Array>
          </mxGeometry>
        </mxCell>
        <mxCell id="171" value="&lt;div style=&#39;width: 27.6875px;height:auto;word-break: break-word;&#39;&gt;&lt;div align=&quot;center&quot;&gt;&lt;span style=&quot;font-size:12px;font-family:Arial; line-height: 0;&quot;&gt;&lt;span style=&quot; line-height: normal;&quot;&gt;0,1&lt;/span&gt;&lt;/span&gt;&lt;/div&gt;&lt;/div&gt;" style="text;html=1;nl2Br=0;points=[];labelBackgroundColor=#FFFFFF;html=1;nl2Br=0;verticalAlign=middle;align=center;spacingLeft=0.0;spacingRight=0;gliffyId=2906;" parent="170" vertex="1">
          <mxGeometry x="0.664429174077386" relative="1" as="geometry">
            <mxPoint y="20" as="offset" />
          </mxGeometry>
        </mxCell>
        <mxCell id="172" value="0..1" style="text;html=1;nl2Br=0;points=[];labelBackgroundColor=#FFFFFF;html=1;nl2Br=0;verticalAlign=middle;align=center;spacingLeft=0.0;spacingRight=0;gliffyId=2907;" parent="170" vertex="1">
          <mxGeometry x="-0.7700562610833659" relative="1" as="geometry">
            <mxPoint x="16" y="-6" as="offset" />
          </mxGeometry>
        </mxCell>
        <mxCell id="173" value="&lt;div style=&#39;width: 101.725px;height:auto;word-break: break-word;&#39;&gt;&lt;div align=&quot;center&quot;&gt;&lt;span style=&quot;font-size:12px;font-family:Arial; line-height: 0;&quot;&gt;&lt;span style=&quot; line-height: normal;&quot;&gt;is observation of &lt;/span&gt;&lt;/span&gt;&lt;/div&gt;&lt;/div&gt;" style="text;html=1;nl2Br=0;points=[];labelBackgroundColor=#FFFFFF;html=1;nl2Br=0;verticalAlign=middle;align=center;spacingLeft=0.0;spacingRight=0;gliffyId=2908;" parent="170" vertex="1">
          <mxGeometry x="0.1008822883661451" relative="1" as="geometry">
            <mxPoint x="-2" as="offset" />
          </mxGeometry>
        </mxCell>
        <mxCell id="174" style="shape=filledEdge;strokeWidth=2;strokeColor=#000000;fillColor=none;startArrow=none;startFill=0;startSize=6;endArrow=open;endFill=0;endSize=6;rounded=0;html=1;nl2Br=0;gliffyId=2915;exitX=0.7071067690849304;exitY=1.0;exitPerimeter=0;entryX=0.5;entryY=0.0;entryPerimeter=0;" parent="2" source="29" target="37" edge="1">
          <mxGeometry width="2" height="102" relative="1" as="geometry">
            <Array as="points">
              <mxPoint x="1979.852783203125" y="870" />
              <mxPoint x="2100" y="1010" />
            </Array>
          </mxGeometry>
        </mxCell>
        <mxCell id="175" value="&lt;div style=&#39;width: 17.675px;height:auto;word-break: break-word;&#39;&gt;&lt;div align=&quot;center&quot;&gt;&lt;span style=&quot;font-size:12px;font-family:Arial; line-height: 0;&quot;&gt;&lt;span style=&quot; line-height: normal;&quot;&gt;1&lt;/span&gt;&lt;/span&gt;&lt;/div&gt;&lt;/div&gt;" style="text;html=1;nl2Br=0;points=[];labelBackgroundColor=#FFFFFF;html=1;nl2Br=0;verticalAlign=middle;align=center;spacingLeft=0.0;spacingRight=0;gliffyId=2916;" parent="174" vertex="1">
          <mxGeometry x="0.6369742791615378" relative="1" as="geometry">
            <mxPoint x="-7" y="12" as="offset" />
          </mxGeometry>
        </mxCell>
        <mxCell id="176" value="&lt;div style=&#39;width: 29.0125px;height:auto;word-break: break-word;&#39;&gt;&lt;div align=&quot;center&quot;&gt;&lt;span style=&quot;font-size:12px;font-family:Arial; line-height: 0;&quot;&gt;&lt;span style=&quot; line-height: normal;&quot;&gt;0..*&lt;/span&gt;&lt;/span&gt;&lt;/div&gt;&lt;/div&gt;" style="text;html=1;nl2Br=0;points=[];labelBackgroundColor=#FFFFFF;html=1;nl2Br=0;verticalAlign=middle;align=center;spacingLeft=0.0;spacingRight=0;gliffyId=2917;" parent="174" vertex="1">
          <mxGeometry x="-0.7181368790847683" relative="1" as="geometry">
            <mxPoint x="14" y="-8" as="offset" />
          </mxGeometry>
        </mxCell>
        <mxCell id="177" value="&lt;div style=&#39;width: 78.3875px;height:auto;word-break: break-word;&#39;&gt;&lt;div align=&quot;center&quot;&gt;&lt;span style=&quot;font-size:12px;font-family:Arial; line-height: 0;&quot;&gt;&lt;span style=&quot; line-height: normal;&quot;&gt;is defined by&lt;/span&gt;&lt;/span&gt;&lt;/div&gt;&lt;/div&gt;" style="text;html=1;nl2Br=0;points=[];labelBackgroundColor=#FFFFFF;html=1;nl2Br=0;verticalAlign=middle;align=center;spacingLeft=0.0;spacingRight=0;gliffyId=2918;" parent="174" vertex="1">
          <mxGeometry x="-0.06666666666666665" relative="1" as="geometry">
            <mxPoint as="offset" />
          </mxGeometry>
        </mxCell>
        <mxCell id="178" style="shape=filledEdge;strokeWidth=2;strokeColor=#000000;fillColor=none;startArrow=none;startFill=0;startSize=6;endArrow=open;endFill=0;endSize=6;rounded=0;html=1;nl2Br=0;gliffyId=2926;edgeStyle=orthogonalEdgeStyle;" parent="2" source="3" target="38" edge="1">
          <mxGeometry width="2" height="102" relative="1" as="geometry">
            <Array as="points">
              <mxPoint x="1615" y="390" />
              <mxPoint x="1615" y="100" />
              <mxPoint x="1145" y="100" />
            </Array>
          </mxGeometry>
        </mxCell>
        <mxCell id="179" value="&lt;div style=&#39;width: 17.675px;height:auto;word-break: break-word;&#39;&gt;&lt;div align=&quot;center&quot;&gt;&lt;span style=&quot;font-size:12px;font-family:Arial; line-height: 0;&quot;&gt;&lt;span style=&quot; line-height: normal;&quot;&gt;1&lt;/span&gt;&lt;/span&gt;&lt;/div&gt;&lt;/div&gt;" style="text;html=1;nl2Br=0;points=[];labelBackgroundColor=#FFFFFF;html=1;nl2Br=0;verticalAlign=middle;align=center;spacingLeft=0.0;spacingRight=0;gliffyId=2927;" parent="178" vertex="1">
          <mxGeometry x="0.959748427672956" relative="1" as="geometry">
            <mxPoint y="13" as="offset" />
          </mxGeometry>
        </mxCell>
        <mxCell id="180" value="&lt;div style=&#39;width: 29.0125px;height:auto;word-break: break-word;&#39;&gt;&lt;div align=&quot;center&quot;&gt;&lt;span style=&quot;font-size:12px;font-family:Arial; line-height: 0;&quot;&gt;&lt;span style=&quot; line-height: normal;&quot;&gt;0..*&lt;/span&gt;&lt;/span&gt;&lt;/div&gt;&lt;/div&gt;" style="text;html=1;nl2Br=0;points=[];labelBackgroundColor=#FFFFFF;html=1;nl2Br=0;verticalAlign=middle;align=center;spacingLeft=0.0;spacingRight=0;gliffyId=2928;" parent="178" vertex="1">
          <mxGeometry x="-0.9622641509433962" relative="1" as="geometry">
            <mxPoint x="-18" y="3" as="offset" />
          </mxGeometry>
        </mxCell>
        <mxCell id="181" value="&lt;div style=&#39;width: 78.3875px;height:auto;word-break: break-word;&#39;&gt;&lt;div align=&quot;center&quot;&gt;&lt;span style=&quot;font-size:12px;font-family:Arial; line-height: 0;&quot;&gt;&lt;span style=&quot; line-height: normal;&quot;&gt;is defined by&lt;/span&gt;&lt;/span&gt;&lt;/div&gt;&lt;/div&gt;" style="text;html=1;nl2Br=0;points=[];labelBackgroundColor=#FFFFFF;html=1;nl2Br=0;verticalAlign=middle;align=center;spacingLeft=0.0;spacingRight=0;gliffyId=2929;" parent="178" vertex="1">
          <mxGeometry x="0.47672955974842757" relative="1" as="geometry">
            <mxPoint as="offset" />
          </mxGeometry>
        </mxCell>
        <mxCell id="182" style="shape=filledEdge;strokeWidth=2;strokeColor=#000000;fillColor=none;startArrow=none;startFill=0;startSize=6;endArrow=open;endFill=0;endSize=6;rounded=0;html=1;nl2Br=0;gliffyId=3180;edgeStyle=orthogonalEdgeStyle;" parent="2" source="24" target="38" edge="1">
          <mxGeometry width="2" height="102" relative="1" as="geometry">
            <Array as="points">
              <mxPoint x="410.147216796875" y="625" />
              <mxPoint x="410.147216796875" y="100" />
              <mxPoint x="1025" y="100" />
            </Array>
          </mxGeometry>
        </mxCell>
        <mxCell id="183" value="&lt;div style=&#39;width: 27.6875px;height:auto;word-break: break-word;&#39;&gt;&lt;div align=&quot;center&quot;&gt;&lt;span style=&quot;font-size:12px;font-family:Arial; line-height: 0;&quot;&gt;&lt;span style=&quot; line-height: normal;&quot;&gt;0,1&lt;/span&gt;&lt;/span&gt;&lt;/div&gt;&lt;/div&gt;" style="text;html=1;nl2Br=0;points=[];labelBackgroundColor=#FFFFFF;html=1;nl2Br=0;verticalAlign=middle;align=center;spacingLeft=0.0;spacingRight=0;gliffyId=3181;" parent="182" vertex="1">
          <mxGeometry x="0.9544810786063882" relative="1" as="geometry">
            <mxPoint y="13" as="offset" />
          </mxGeometry>
        </mxCell>
        <mxCell id="184" value="&lt;div style=&#39;width: 29.0125px;height:auto;word-break: break-word;&#39;&gt;&lt;div align=&quot;center&quot;&gt;&lt;span style=&quot;font-size:12px;font-family:Arial; line-height: 0;&quot;&gt;&lt;span style=&quot; line-height: normal;&quot;&gt;0..*&lt;/span&gt;&lt;/span&gt;&lt;/div&gt;&lt;/div&gt;" style="text;html=1;nl2Br=0;points=[];labelBackgroundColor=#FFFFFF;html=1;nl2Br=0;verticalAlign=middle;align=center;spacingLeft=0.0;spacingRight=0;gliffyId=3182;" parent="182" vertex="1">
          <mxGeometry x="-0.9754354249404624" relative="1" as="geometry">
            <mxPoint x="16" y="-1" as="offset" />
          </mxGeometry>
        </mxCell>
        <mxCell id="185" value="&lt;div style=&#39;width: 78.3875px;height:auto;word-break: break-word;&#39;&gt;&lt;div align=&quot;center&quot;&gt;&lt;span style=&quot;font-size:12px;font-family:Arial; line-height: 0;&quot;&gt;&lt;span style=&quot; line-height: normal;&quot;&gt;is defined by&lt;/span&gt;&lt;/span&gt;&lt;/div&gt;&lt;/div&gt;" style="text;html=1;nl2Br=0;points=[];labelBackgroundColor=#FFFFFF;html=1;nl2Br=0;verticalAlign=middle;align=center;spacingLeft=0.0;spacingRight=0;gliffyId=3183;" parent="182" vertex="1">
          <mxGeometry x="0.47672955974842757" relative="1" as="geometry">
            <mxPoint as="offset" />
          </mxGeometry>
        </mxCell>
        <mxCell id="186" style="shape=filledEdge;strokeWidth=2;strokeColor=#000000;fillColor=none;startArrow=none;startFill=0;startSize=6;endArrow=open;endFill=0;endSize=6;rounded=0;html=1;nl2Br=0;gliffyId=3065;exitX=1.1102230246251565E-16;exitY=0.2928932309150696;exitPerimeter=0;entryX=1;entryY=0.75;entryDx=0;entryDy=0;" parent="2" source="22" target="25" edge="1">
          <mxGeometry width="2" height="102" relative="1" as="geometry">
            <mxPoint x="495" y="887.4263916015625" as="targetPoint" />
            <Array as="points">
              <mxPoint x="665" y="887.5735473632812" />
            </Array>
          </mxGeometry>
        </mxCell>
        <mxCell id="187" value="&lt;div style=&#39;width: 17.675px;height:auto;word-break: break-word;&#39;&gt;&lt;div align=&quot;center&quot;&gt;&lt;span style=&quot;font-size:12px;font-family:Arial; line-height: 0;&quot;&gt;&lt;span style=&quot; line-height: normal;&quot;&gt;1&lt;/span&gt;&lt;/span&gt;&lt;/div&gt;&lt;/div&gt;" style="text;html=1;nl2Br=0;points=[];labelBackgroundColor=#FFFFFF;html=1;nl2Br=0;verticalAlign=middle;align=center;spacingLeft=0.0;spacingRight=0;gliffyId=3066;" parent="186" vertex="1">
          <mxGeometry x="0.670587609147755" relative="1" as="geometry">
            <mxPoint x="-9" y="11" as="offset" />
          </mxGeometry>
        </mxCell>
        <mxCell id="188" value="&lt;div style=&#39;width: 29.0125px;height:auto;word-break: break-word;&#39;&gt;&lt;div align=&quot;center&quot;&gt;&lt;span style=&quot;font-size:12px;font-family:Arial; line-height: 0;&quot;&gt;&lt;span style=&quot; line-height: normal;&quot;&gt;1..*&lt;/span&gt;&lt;/span&gt;&lt;/div&gt;&lt;/div&gt;" style="text;html=1;nl2Br=0;points=[];labelBackgroundColor=#FFFFFF;html=1;nl2Br=0;verticalAlign=middle;align=center;spacingLeft=0.0;spacingRight=0;gliffyId=3067;" parent="186" vertex="1">
          <mxGeometry x="-0.8000000749611843" relative="1" as="geometry">
            <mxPoint x="-1" y="-10" as="offset" />
          </mxGeometry>
        </mxCell>
        <mxCell id="189" value="&lt;div style=&#39;width: 78.375px;height:auto;word-break: break-word;&#39;&gt;&lt;div align=&quot;center&quot;&gt;&lt;span style=&quot;font-size:12px;font-family:Arial; line-height: 0;&quot;&gt;&lt;span style=&quot; line-height: normal;&quot;&gt;provides &lt;/span&gt;&lt;/span&gt;&lt;/div&gt; &lt;div align=&quot;center&quot;&gt;&lt;span style=&quot;font-size:12px;font-family:Arial; line-height: 0;&quot;&gt;&lt;span style=&quot; line-height: normal;&quot;&gt;metadata for&lt;/span&gt;&lt;/span&gt;&lt;/div&gt;&lt;/div&gt;" style="text;html=1;nl2Br=0;points=[];labelBackgroundColor=#FFFFFF;html=1;nl2Br=0;verticalAlign=middle;align=center;spacingLeft=0.0;spacingRight=0;gliffyId=3068;" parent="186" vertex="1">
          <mxGeometry x="-0.06666666666666665" relative="1" as="geometry">
            <mxPoint as="offset" />
          </mxGeometry>
        </mxCell>
        <mxCell id="190" style="shape=filledEdge;strokeWidth=2;strokeColor=#000000;fillColor=none;startArrow=none;startFill=0;startSize=6;endArrow=open;endFill=0;endSize=6;rounded=0;html=1;nl2Br=0;gliffyId=3069;exitX=0.0;exitY=0.7071067690849304;exitPerimeter=0;entryX=1.0;entryY=0.2928932309150696;entryPerimeter=0;" parent="2" source="23" target="26" edge="1">
          <mxGeometry width="2" height="102" relative="1" as="geometry">
            <Array as="points">
              <mxPoint x="665" y="742.4263916015625" />
              <mxPoint x="495.0000305175781" y="742.5736083984375" />
            </Array>
          </mxGeometry>
        </mxCell>
        <mxCell id="191" value="&lt;div style=&#39;width: 29.0125px;height:auto;word-break: break-word;&#39;&gt;&lt;div align=&quot;center&quot;&gt;&lt;span style=&quot;font-size:12px;font-family:Arial;color:rgb(0, 0, 0); line-height: 0;&quot;&gt;&lt;span style=&quot; line-height: normal;&quot;&gt;1..*&lt;/span&gt;&lt;/span&gt;&lt;/div&gt;&lt;/div&gt;" style="text;html=1;nl2Br=0;points=[];labelBackgroundColor=#FFFFFF;html=1;nl2Br=0;verticalAlign=middle;align=center;spacingLeft=0.0;spacingRight=0;gliffyId=3070;" parent="190" vertex="1">
          <mxGeometry x="0.7058817135663695" relative="1" as="geometry">
            <mxPoint y="-10" as="offset" />
          </mxGeometry>
        </mxCell>
        <mxCell id="192" value="&lt;div style=&#39;width: 29.0125px;height:auto;word-break: break-word;&#39;&gt;&lt;div align=&quot;center&quot;&gt;&lt;span style=&quot;font-size:12px;font-family:Arial; line-height: 0;&quot;&gt;&lt;span style=&quot; line-height: normal;&quot;&gt;1..*&lt;/span&gt;&lt;/span&gt;&lt;/div&gt;&lt;/div&gt;" style="text;html=1;nl2Br=0;points=[];labelBackgroundColor=#FFFFFF;html=1;nl2Br=0;verticalAlign=middle;align=center;spacingLeft=0.0;spacingRight=0;gliffyId=3071;" parent="190" vertex="1">
          <mxGeometry x="-0.7411765675968267" relative="1" as="geometry">
            <mxPoint x="3" y="10" as="offset" />
          </mxGeometry>
        </mxCell>
        <mxCell id="193" value="&lt;div style=&#39;width: 75.025px;height:auto;word-break: break-word;&#39;&gt;&lt;div align=&quot;center&quot;&gt;&lt;span style=&quot;font-size:12px;font-family:Arial; line-height: 0;&quot;&gt;&lt;span style=&quot; line-height: normal;&quot;&gt;provides &lt;/span&gt;&lt;/span&gt;&lt;/div&gt; &lt;div align=&quot;center&quot;&gt;&lt;span style=&quot;font-size:12px;font-family:Arial; line-height: 0;&quot;&gt;&lt;span style=&quot; line-height: normal;&quot;&gt;structure for&lt;/span&gt;&lt;/span&gt;&lt;/div&gt;&lt;/div&gt;" style="text;html=1;nl2Br=0;points=[];labelBackgroundColor=#FFFFFF;html=1;nl2Br=0;verticalAlign=middle;align=center;spacingLeft=0.0;spacingRight=0;gliffyId=3072;" parent="190" vertex="1">
          <mxGeometry x="-0.06666666666666665" relative="1" as="geometry">
            <mxPoint as="offset" />
          </mxGeometry>
        </mxCell>
        <mxCell id="194" style="shape=filledEdge;strokeWidth=2;strokeColor=#000000;fillColor=none;startArrow=none;startFill=0;startSize=6;endArrow=open;endFill=0;endSize=6;rounded=0;html=1;nl2Br=0;gliffyId=3083;edgeStyle=orthogonalEdgeStyle;" parent="2" source="25" target="27" edge="1">
          <mxGeometry width="2" height="102" relative="1" as="geometry">
            <Array as="points">
              <mxPoint x="375" y="875" />
              <mxPoint x="250" y="875" />
              <mxPoint x="250" y="815" />
            </Array>
          </mxGeometry>
        </mxCell>
        <mxCell id="195" value="&lt;div style=&#39;width: 17.675px;height:auto;word-break: break-word;&#39;&gt;&lt;div align=&quot;center&quot;&gt;&lt;span style=&quot;font-size:12px;font-family:Arial; line-height: 0;&quot;&gt;&lt;span style=&quot; line-height: normal;&quot;&gt;1&lt;/span&gt;&lt;/span&gt;&lt;/div&gt;&lt;/div&gt;" style="text;html=1;nl2Br=0;points=[];labelBackgroundColor=#FFFFFF;html=1;nl2Br=0;verticalAlign=middle;align=center;spacingLeft=0.0;spacingRight=0;gliffyId=3084;" parent="194" vertex="1">
          <mxGeometry x="0.871398365064292" relative="1" as="geometry">
            <mxPoint x="14" y="-1" as="offset" />
          </mxGeometry>
        </mxCell>
        <mxCell id="196" value="&lt;div style=&#39;width: 29.0125px;height:auto;word-break: break-word;&#39;&gt;&lt;div align=&quot;center&quot;&gt;&lt;span style=&quot;font-size:12px;font-family:Arial; line-height: 0;&quot;&gt;&lt;span style=&quot; line-height: normal;&quot;&gt;0..*&lt;/span&gt;&lt;/span&gt;&lt;/div&gt;&lt;/div&gt;" style="text;html=1;nl2Br=0;points=[];labelBackgroundColor=#FFFFFF;html=1;nl2Br=0;verticalAlign=middle;align=center;spacingLeft=0.0;spacingRight=0;gliffyId=3085;" parent="194" vertex="1">
          <mxGeometry x="-0.8511627906976744" relative="1" as="geometry">
            <mxPoint x="-4" y="-11" as="offset" />
          </mxGeometry>
        </mxCell>
        <mxCell id="197" value="&lt;div style=&#39;width: 55.025px;height:auto;word-break: break-word;&#39;&gt;&lt;div align=&quot;center&quot;&gt;&lt;span style=&quot;font-size:12px;font-family:Arial; line-height: 0;&quot;&gt;&lt;span style=&quot; line-height: normal;&quot;&gt;refers to&lt;/span&gt;&lt;/span&gt;&lt;/div&gt;&lt;/div&gt;" style="text;html=1;nl2Br=0;points=[];labelBackgroundColor=#FFFFFF;html=1;nl2Br=0;verticalAlign=middle;align=center;spacingLeft=0.0;spacingRight=0;gliffyId=3086;" parent="194" vertex="1">
          <mxGeometry x="-0.3674418604651163" relative="1" as="geometry">
            <mxPoint x="-20" as="offset" />
          </mxGeometry>
        </mxCell>
        <mxCell id="198" style="shape=filledEdge;strokeWidth=2;strokeColor=#000000;fillColor=none;startArrow=none;startFill=0;startSize=6;endArrow=open;endFill=0;endSize=6;rounded=0;html=1;nl2Br=0;gliffyId=3091;edgeStyle=orthogonalEdgeStyle;" parent="2" source="24" target="27" edge="1">
          <mxGeometry width="2" height="102" relative="1" as="geometry">
            <Array as="points">
              <mxPoint x="375" y="667.4263916015625" />
              <mxPoint x="250" y="667.4263916015625" />
              <mxPoint x="250" y="755" />
            </Array>
          </mxGeometry>
        </mxCell>
        <mxCell id="199" value="&lt;div style=&#39;width: 17.675px;height:auto;word-break: break-word;&#39;&gt;&lt;div align=&quot;center&quot;&gt;&lt;span style=&quot;font-size:12px;font-family:Arial; line-height: 0;&quot;&gt;&lt;span style=&quot; line-height: normal;&quot;&gt;1&lt;/span&gt;&lt;/span&gt;&lt;/div&gt;&lt;/div&gt;" style="text;html=1;nl2Br=0;points=[];labelBackgroundColor=#FFFFFF;html=1;nl2Br=0;verticalAlign=middle;align=center;spacingLeft=0.0;spacingRight=0;gliffyId=3092;" parent="198" vertex="1">
          <mxGeometry x="0.8748113265959896" relative="1" as="geometry">
            <mxPoint x="14" y="1" as="offset" />
          </mxGeometry>
        </mxCell>
        <mxCell id="200" value="&lt;div style=&#39;width: 29.0125px;height:auto;word-break: break-word;&#39;&gt;&lt;div align=&quot;center&quot;&gt;&lt;span style=&quot;font-size:12px;font-family:Arial; line-height: 0;&quot;&gt;&lt;span style=&quot; line-height: normal;&quot;&gt;0..*&lt;/span&gt;&lt;/span&gt;&lt;/div&gt;&lt;/div&gt;" style="text;html=1;nl2Br=0;points=[];labelBackgroundColor=#FFFFFF;html=1;nl2Br=0;verticalAlign=middle;align=center;spacingLeft=0.0;spacingRight=0;gliffyId=3093;" parent="198" vertex="1">
          <mxGeometry x="-0.8137737258859077" relative="1" as="geometry">
            <mxPoint x="2" y="10" as="offset" />
          </mxGeometry>
        </mxCell>
        <mxCell id="201" value="&lt;div style=&#39;width: 55.025px;height:auto;word-break: break-word;&#39;&gt;&lt;div align=&quot;center&quot;&gt;&lt;span style=&quot;font-size:12px;font-family:Arial; line-height: 0;&quot;&gt;&lt;span style=&quot; line-height: normal;&quot;&gt;refers to&lt;/span&gt;&lt;/span&gt;&lt;/div&gt;&lt;/div&gt;" style="text;html=1;nl2Br=0;points=[];labelBackgroundColor=#FFFFFF;html=1;nl2Br=0;verticalAlign=middle;align=center;spacingLeft=0.0;spacingRight=0;gliffyId=3094;" parent="198" vertex="1">
          <mxGeometry x="-0.2003224699806624" relative="1" as="geometry">
            <mxPoint x="2" y="-2" as="offset" />
          </mxGeometry>
        </mxCell>
        <mxCell id="202" style="shape=filledEdge;strokeWidth=2;strokeColor=#000000;fillColor=none;startArrow=open;startFill=0;startSize=6;endArrow=none;endFill=0;endSize=6;rounded=0;html=1;nl2Br=0;gliffyId=3103;edgeStyle=orthogonalEdgeStyle;" parent="2" source="24" target="28" edge="1">
          <mxGeometry width="2" height="102" relative="1" as="geometry">
            <Array as="points">
              <mxPoint x="375" y="642.5736083984375" />
              <mxPoint x="165" y="642.5736083984375" />
              <mxPoint x="165" y="955" />
              <mxPoint x="375" y="955" />
            </Array>
          </mxGeometry>
        </mxCell>
        <mxCell id="203" value="&lt;div style=&#39;width: 29.0125px;height:auto;word-break: break-word;&#39;&gt;&lt;div align=&quot;center&quot;&gt;&lt;span style=&quot;font-size:12px;font-family:Arial; line-height: 0;&quot;&gt;&lt;span style=&quot; line-height: normal;&quot;&gt;0..*&lt;/span&gt;&lt;/span&gt;&lt;/div&gt;&lt;/div&gt;" style="text;html=1;nl2Br=0;points=[];labelBackgroundColor=#FFFFFF;html=1;nl2Br=0;verticalAlign=middle;align=center;spacingLeft=0.0;spacingRight=0;gliffyId=3104;" parent="202" vertex="1">
          <mxGeometry x="0.9520635126483921" relative="1" as="geometry">
            <mxPoint x="-1" y="-11" as="offset" />
          </mxGeometry>
        </mxCell>
        <mxCell id="204" value="&lt;div style=&#39;width: 17.675px;height:auto;word-break: break-word;&#39;&gt;&lt;div align=&quot;center&quot;&gt;&lt;span style=&quot;font-size:12px;font-family:Arial; line-height: 0;&quot;&gt;&lt;span style=&quot; line-height: normal;&quot;&gt;1&lt;/span&gt;&lt;/span&gt;&lt;/div&gt;&lt;/div&gt;" style="text;html=1;nl2Br=0;points=[];labelBackgroundColor=#FFFFFF;html=1;nl2Br=0;verticalAlign=middle;align=center;spacingLeft=0.0;spacingRight=0;gliffyId=3105;" parent="202" vertex="1">
          <mxGeometry x="-0.9624086806367572" relative="1" as="geometry">
            <mxPoint x="-3" y="-14" as="offset" />
          </mxGeometry>
        </mxCell>
        <mxCell id="205" value="&lt;div style=&#39;width: 85.0375px;height:auto;word-break: break-word;&#39;&gt;&lt;div align=&quot;center&quot;&gt;&lt;span style=&quot;font-size:12px;font-family:Arial; line-height: 0;&quot;&gt;&lt;span style=&quot; line-height: normal;&quot;&gt;is instance for&lt;/span&gt;&lt;/span&gt;&lt;/div&gt;&lt;/div&gt;" style="text;html=1;nl2Br=0;points=[];labelBackgroundColor=#FFFFFF;html=1;nl2Br=0;verticalAlign=middle;align=center;spacingLeft=0.0;spacingRight=0;gliffyId=3106;" parent="202" vertex="1">
          <mxGeometry x="0.6379074865412919" relative="1" as="geometry">
            <mxPoint as="offset" />
          </mxGeometry>
        </mxCell>
        <mxCell id="206" style="shape=filledEdge;strokeWidth=2;strokeColor=#000000;fillColor=none;startArrow=open;startFill=0;startSize=6;endArrow=none;endFill=0;endSize=6;rounded=0;html=1;nl2Br=0;gliffyId=3107;edgeStyle=orthogonalEdgeStyle;" parent="2" source="26" target="25" edge="1">
          <mxGeometry width="2" height="102" relative="1" as="geometry">
            <Array as="points">
              <mxPoint x="495" y="767.4263916015625" />
              <mxPoint x="535" y="767.4263916015625" />
              <mxPoint x="535" y="862.5736083984375" />
              <mxPoint x="495" y="862.5736083984375" />
            </Array>
          </mxGeometry>
        </mxCell>
        <mxCell id="207" value="&lt;div style=&#39;width: 29.0125px;height:auto;word-break: break-word;&#39;&gt;&lt;div align=&quot;center&quot;&gt;&lt;span style=&quot;font-size:12px;font-family:Arial; line-height: 0;&quot;&gt;&lt;span style=&quot; line-height: normal;&quot;&gt;0..*&lt;/span&gt;&lt;/span&gt;&lt;/div&gt;&lt;/div&gt;" style="text;html=1;nl2Br=0;points=[];labelBackgroundColor=#FFFFFF;html=1;nl2Br=0;verticalAlign=middle;align=center;spacingLeft=0.0;spacingRight=0;gliffyId=3108;" parent="206" vertex="1">
          <mxGeometry x="0.2789243423558676" relative="1" as="geometry">
            <mxPoint x="-23" y="13" as="offset" />
          </mxGeometry>
        </mxCell>
        <mxCell id="208" value="&lt;div style=&#39;width: 27.6875px;height:auto;word-break: break-word;&#39;&gt;&lt;div align=&quot;center&quot;&gt;&lt;span style=&quot;font-size:12px;font-family:Arial; line-height: 0;&quot;&gt;&lt;span style=&quot; line-height: normal;&quot;&gt;0,1&lt;/span&gt;&lt;/span&gt;&lt;/div&gt;&lt;/div&gt;" style="text;html=1;nl2Br=0;points=[];labelBackgroundColor=#FFFFFF;html=1;nl2Br=0;verticalAlign=middle;align=center;spacingLeft=0.0;spacingRight=0;gliffyId=3109;" parent="206" vertex="1">
          <mxGeometry x="-0.8287154898630534" relative="1" as="geometry">
            <mxPoint x="1" y="12" as="offset" />
          </mxGeometry>
        </mxCell>
        <mxCell id="209" value="&lt;div style=&#39;width: 85.0375px;height:auto;word-break: break-word;&#39;&gt;&lt;div align=&quot;center&quot;&gt;&lt;span style=&quot;font-size:12px;font-family:Arial; line-height: 0;&quot;&gt;&lt;span style=&quot; line-height: normal;&quot;&gt;is instance for&lt;/span&gt;&lt;/span&gt;&lt;/div&gt;&lt;/div&gt;" style="text;html=1;nl2Br=0;points=[];labelBackgroundColor=#FFFFFF;html=1;nl2Br=0;verticalAlign=middle;align=center;spacingLeft=0.0;spacingRight=0;gliffyId=3110;" parent="206" vertex="1">
          <mxGeometry x="0.005163961686004193" relative="1" as="geometry">
            <mxPoint y="-2" as="offset" />
          </mxGeometry>
        </mxCell>
        <mxCell id="210" value="&lt;div style=&#39;width: 867.0px;height:auto;word-break: break-word;&#39;&gt;&lt;div align=&quot;center&quot;&gt;&lt;span style=&quot;font-size:14px;font-family:Arial; line-height: normal;&quot;&gt;Note: All GSIM classes except &lt;span style=&quot;font-style:italic; line-height: normal;&quot;&gt;Administrative Details, Agent In Role, Change Event, Datum, Process Input&lt;/span&gt; and &lt;span style=&quot;font-style:italic; line-height: normal;&quot;&gt;Process Output&lt;/span&gt; are a sub-type of &lt;span style=&quot;font-style:italic; line-height: normal;&quot;&gt;Identifiable Artefact&lt;/span&gt;; these relationships are not shown in the above diagram.&lt;span style=&quot;text-decoration:none; line-height: normal;&quot;&gt;&lt;br /&gt;&lt;/span&gt;&lt;/span&gt;&lt;/div&gt;&lt;/div&gt;" style="text;html=1;nl2Br=0;html=1;nl2Br=0;verticalAlign=middle;align=center;spacingLeft=0.0;spacingRight=0;whiteSpace=wrap;gliffyId=3157;" parent="2" vertex="1">
          <mxGeometry x="630" y="1366.5" width="870" height="33" as="geometry" />
        </mxCell>
        <mxCell id="211" style="shape=filledEdge;strokeWidth=2;strokeColor=#000000;fillColor=none;startArrow=none;startFill=0;startSize=6;endArrow=diamond;endFill=1;endSize=12;rounded=0;html=1;nl2Br=0;gliffyId=560f557b-29c9-426e-a51e-946937d97921;edgeStyle=orthogonalEdgeStyle;" parent="2" source="34" target="31" edge="1">
          <mxGeometry width="100" height="100" relative="1" as="geometry">
            <Array as="points">
              <mxPoint x="1270" y="1268" />
              <mxPoint x="1230" y="1268" />
              <mxPoint x="1230" y="1000" />
              <mxPoint x="1564" y="1000" />
              <mxPoint x="1564" y="930" />
            </Array>
          </mxGeometry>
        </mxCell>
        <mxCell id="212" value="&lt;div style=&#39;width: 17.675px;height:auto;word-break: break-word;&#39;&gt;&lt;div align=&quot;center&quot;&gt;&lt;span style=&quot;font-size:12px;font-family:Arial; line-height: normal;&quot;&gt;1&lt;/span&gt;&lt;/div&gt;&lt;/div&gt;" style="text;html=1;nl2Br=0;points=[];labelBackgroundColor=#FFFFFF;html=1;nl2Br=0;verticalAlign=middle;align=center;spacingLeft=0.0;spacingRight=0;gliffyId=fee74385-8076-4077-92fe-dbd82e022840;" parent="211" vertex="1">
          <mxGeometry x="0.9297752808988764" relative="1" as="geometry">
            <mxPoint x="-15" as="offset" />
          </mxGeometry>
        </mxCell>
        <mxCell id="213" value="&lt;div style=&#39;width: 29.0125px;height:auto;word-break: break-word;&#39;&gt;&lt;div align=&quot;center&quot;&gt;&lt;span style=&quot;font-size:12px;font-family:Arial; line-height: normal;&quot;&gt;0..*&lt;/span&gt;&lt;/div&gt;&lt;/div&gt;" style="text;html=1;nl2Br=0;points=[];labelBackgroundColor=#FFFFFF;html=1;nl2Br=0;verticalAlign=middle;align=center;spacingLeft=0.0;spacingRight=0;gliffyId=88f26a41-1ef6-4f5f-9f2c-2693d3c39102;" parent="211" vertex="1">
          <mxGeometry x="-0.9578651685393258" relative="1" as="geometry">
            <mxPoint x="-4" y="-12" as="offset" />
          </mxGeometry>
        </mxCell>
        <mxCell id="214" value="&lt;div style=&#39;width: 30.35px;height:auto;word-break: break-word;&#39;&gt;&lt;div align=&quot;center&quot;&gt;&lt;span style=&quot;font-size:12px;text-decoration:none;font-family:Arial; line-height: 0;&quot;&gt;&lt;span style=&quot;text-decoration:none; line-height: normal;&quot;&gt;has&lt;/span&gt;&lt;/span&gt;&lt;/div&gt;&lt;/div&gt;" style="text;html=1;nl2Br=0;points=[];labelBackgroundColor=#FFFFFF;html=1;nl2Br=0;verticalAlign=middle;align=center;spacingLeft=0.0;spacingRight=0;gliffyId=72c786e3-7bf4-40fd-9464-789f3613f0dd;" parent="211" vertex="1">
          <mxGeometry x="0.1569508302670044" relative="1" as="geometry">
            <mxPoint as="offset" />
          </mxGeometry>
        </mxCell>
        <mxCell id="215" value="&lt;div style=&#39;width: 114.333336px;height:auto;word-break: break-word;&#39;&gt;&lt;div align=&quot;center&quot;&gt;&lt;span style=&quot;font-size:12px;font-family:Arial; line-height: 0;&quot;&gt;&lt;span style=&quot; line-height: normal;&quot;&gt;Data Record&lt;/span&gt;&lt;/span&gt;&lt;/div&gt;&lt;/div&gt;" style="shape=rect;shadow=0;strokeWidth=2;fillColor=#fff2cc;strokeColor=#000000;opacity=100.0;html=1;nl2Br=0;verticalAlign=middle;align=center;spacingLeft=1.3333334;spacingRight=0;whiteSpace=wrap;gliffyId=2847;" parent="2" vertex="1">
          <mxGeometry x="1610" y="1010" width="120" height="60" as="geometry" />
        </mxCell>
        <mxCell id="216" style="shape=filledEdge;strokeWidth=2;strokeColor=#000000;fillColor=none;startArrow=none;startFill=0;startSize=6;endArrow=diamond;endFill=1;endSize=12;rounded=0;html=1;nl2Br=0;gliffyId=c17f8180-3d46-4037-9272-e0cc3141c93b;edgeStyle=orthogonalEdgeStyle;" parent="2" source="32" target="31" edge="1">
          <mxGeometry width="100" height="100" relative="1" as="geometry">
            <Array as="points">
              <mxPoint x="1615.147216796875" y="1178" />
              <mxPoint x="1615.147216796875" y="1100" />
              <mxPoint x="1590.147216796875" y="1100" />
              <mxPoint x="1590.147216796875" y="930" />
            </Array>
          </mxGeometry>
        </mxCell>
        <mxCell id="217" value="&lt;div style=&#39;width: 17.675px;height:auto;word-break: break-word;&#39;&gt;&lt;div align=&quot;center&quot;&gt;&lt;span style=&quot;font-size:12px;font-family:Arial; line-height: normal;&quot;&gt;1&lt;/span&gt;&lt;/div&gt;&lt;/div&gt;" style="text;html=1;nl2Br=0;points=[];labelBackgroundColor=#FFFFFF;html=1;nl2Br=0;verticalAlign=middle;align=center;spacingLeft=0.0;spacingRight=0;gliffyId=f1a245f5-c618-461c-941e-38fa06cfe58f;" parent="216" vertex="1">
          <mxGeometry x="0.8168498168498168" relative="1" as="geometry">
            <mxPoint x="-15" as="offset" />
          </mxGeometry>
        </mxCell>
        <mxCell id="218" value="&lt;div style=&#39;width: 29.0125px;height:auto;word-break: break-word;&#39;&gt;&lt;div align=&quot;center&quot;&gt;&lt;span style=&quot;font-size:12px;font-family:Arial; line-height: normal;&quot;&gt;0..*&lt;/span&gt;&lt;/div&gt;&lt;/div&gt;" style="text;html=1;nl2Br=0;points=[];labelBackgroundColor=#FFFFFF;html=1;nl2Br=0;verticalAlign=middle;align=center;spacingLeft=0.0;spacingRight=0;gliffyId=036f793a-9353-4faf-8736-3bca98e6bf6a;" parent="216" vertex="1">
          <mxGeometry x="-0.8901098901098901" relative="1" as="geometry">
            <mxPoint x="-18" y="4" as="offset" />
          </mxGeometry>
        </mxCell>
        <mxCell id="219" value="&lt;div style=&#39;width: 30.35px;height:auto;word-break: break-word;&#39;&gt;&lt;div align=&quot;center&quot;&gt;&lt;span style=&quot;font-size:12px;text-decoration:none;font-family:Arial; line-height: 0;&quot;&gt;&lt;span style=&quot;text-decoration:none; line-height: normal;&quot;&gt;has&lt;/span&gt;&lt;/span&gt;&lt;/div&gt;&lt;/div&gt;" style="text;html=1;nl2Br=0;points=[];labelBackgroundColor=#FFFFFF;html=1;nl2Br=0;verticalAlign=middle;align=center;spacingLeft=0.0;spacingRight=0;gliffyId=4a34196c-5cd1-4887-86b4-8285678b1ec2;" parent="216" vertex="1">
          <mxGeometry x="0.1135531135531136" relative="1" as="geometry">
            <mxPoint as="offset" />
          </mxGeometry>
        </mxCell>
      </root>
    </mxGraphModel>
  </diagram>
</mxfile>
